<?xml version="1.0" encoding="utf-8"?>
<!-- Generator: Adobe Illustrator 19.0.0, SVG Export Plug-In . SVG Version: 6.00 Build 0)  -->
<svg version="1.1" xmlns="http://www.w3.org/2000/svg" xmlns:xlink="http://www.w3.org/1999/xlink" x="0px" y="0px"
	 viewBox="0 0 2160 864" style="enable-background:new 0 0 2160 864;" xml:space="preserve">
<style type="text/css">
	.st0{display:none;}
	.st1{display:inline;}
	.st2{fill:#58C7D8;}
	.st3{fill:#EB228D;}
	.st4{fill:#29306F;}
	.st5{fill:#17A1C8;}
	.st6{display:none;fill:#29306F;}
	.st7{display:none;fill:#17A1C8;}
	.st8{font-family:'Muli-SemiBold';}
	.st9{font-size:72px;}
	.st10{clip-path:url(#SVGID_2_);}
	.st11{clip-path:url(#SVGID_4_);}
	.st12{fill:#D6137A;}
	.st13{fill:#D61479;}
	.st14{font-size:315.0034px;}
	.st15{font-size:100px;}
</style>
<g id="LOGO" class="st0">
	<g id="BLUE_HEX" class="st1">
		<g id="HEX_2_">
			<path class="st2" d="M575.1,470.4c0,19.8-14,44.1-31.2,54l-153.2,88.4c-17.1,9.9-45.2,9.9-62.4,0l-153.2-88.4
				c-17.1-9.9-31.2-34.2-31.2-54V293.5c0-19.8,14-44.1,31.2-54l153.2-88.4c17.1-9.9,45.2-9.9,62.4,0l153.2,88.4
				c17.1,9.9,31.2,34.2,31.2,54V470.4z"/>
		</g>
		<polygon id="TAIL_4_" class="st2" points="398.1,155.4 311.3,104.2 311.3,162.4 		"/>
	</g>
	<g id="MAGENTA_HEX" class="st1">
		<g id="HEX_1_">
			<path class="st3" d="M716.1,375c0-19.8-14-44.1-31.2-54l-153.2-88.4c-17.1-9.9-45.2-9.9-62.4,0L316.2,321
				c-17.1,9.9-31.2,34.2-31.2,54v176.9c0,19.8,14,44.1,31.2,54l153.2,88.4c17.1,9.9,45.2,9.9,62.4,0l153.2-88.4
				c17.1-9.9,31.2-34.2,31.2-54V375z"/>
		</g>
		<polygon id="TAIL" class="st3" points="546.7,685.9 452.3,740.5 452.3,679 		"/>
	</g>
	<g id="CONVERGE" class="st1">
		<g>
			<path class="st4" d="M315.2,320.5c-17.1,9.9-31.2,34.2-31.2,54v177.7c0,19.8,14,44.1,31.2,54l10.4,6c17.1,9.9,45.2,9.9,62.4,0
				L540.9,524c17.1-9.9,31.2-34.2,31.2-54V292.2c0-19.8-14-44.1-31.2-54l-10.4-6c-17.1-9.9-45.2-9.9-62.4,0L315.2,320.5z"/>
		</g>
	</g>
</g>
<g id="Layer_8">
</g>
<g id="TAG" class="st0">
	<g class="st1">
		<path class="st5" d="M756.1,642.2v-47.2h6.2v47.2H756.1z"/>
		<path class="st5" d="M794.5,642.9c-3.1,0-6.1-0.5-8.9-1.6c-2.8-1-5.2-2.5-7.4-4.5c-2.1-2-3.8-4.5-5.1-7.5
			c-1.3-3.1-1.9-6.5-1.9-10.3c0-3.7,0.6-7.1,1.8-10.2c1.2-3.1,2.8-5.7,4.8-7.9c2.1-2.1,4.5-3.8,7.3-5c2.8-1.2,5.8-1.8,9.1-1.8
			c5.9,0,10.9,1.6,14.8,4.9l-2.5,4.2c-3.5-2.6-7.5-3.9-11.9-3.9c-3.4,0-6.4,0.9-8.9,2.6c-2.6,1.7-4.6,4.1-5.9,7
			c-1.4,3-2.1,6.3-2.1,9.9c0,5.7,1.6,10.3,4.7,13.7c3.2,3.4,7.3,5.1,12.3,5.1c4.8,0,9.2-1.6,13.3-4.7l2.1,4.9
			C805.7,641.3,800.5,642.9,794.5,642.9z"/>
		<path class="st5" d="M827.9,642.2v-42h-15.1v-5.2h36.4v5.2h-15.2v42H827.9z"/>
		<path class="st5" d="M887,637.7c1.3,0,2.5-0.1,3.5-0.4c1-0.2,2-0.6,2.7-1c0.8-0.4,1.4-1,2-1.7c0.5-0.7,0.9-1.4,1.2-2.3
			c0.3-0.9,0.4-1.8,0.4-2.8c0-1.1-0.1-2.1-0.4-2.8c-0.2-0.8-0.7-1.5-1.4-2.2c-0.7-0.7-1.6-1.3-2.7-1.9c-1.2-0.6-2.7-1.1-4.6-1.7
			c-0.2-0.1-0.7-0.2-1.4-0.4c-0.7-0.2-1.2-0.4-1.5-0.4c-4.5-1.3-7.8-2.9-9.9-4.9c-2.1-2-3.1-4.8-3.1-8.6c0-2.7,0.7-4.9,2.1-6.8
			c1.4-1.9,3.2-3.3,5.6-4.2c2.3-0.9,5-1.4,8-1.4c6.4,0,11.2,1.6,14.5,4.9l-3.1,4.2c-1.1-1.1-2.6-2-4.5-2.8c-1.9-0.8-4-1.1-6.3-1.1
			c-3,0-5.4,0.6-7.1,1.8c-1.8,1.2-2.7,2.9-2.7,5.2c0,1.6,0.2,2.8,0.6,3.7c0.4,0.9,1.2,1.7,2.3,2.4c1.1,0.7,2.8,1.4,5,2.1
			c0,0,0.4,0.1,1.2,0.4c0.8,0.2,1.3,0.4,1.5,0.4c2.8,0.8,5,1.7,6.8,2.6c1.8,0.9,3.2,1.9,4.3,3.1c1.1,1.2,1.8,2.4,2.3,3.8
			c0.4,1.4,0.6,3,0.6,5c0,2.2-0.4,4.1-1.2,5.8c-0.8,1.7-2,3.1-3.5,4.1c-1.5,1.1-3.2,1.9-5.1,2.4c-1.9,0.5-4,0.8-6.2,0.8
			c-3.5,0-6.7-0.6-9.4-1.7c-2.8-1.2-4.8-2.3-6.1-3.6l2.8-4.5c1.4,1.1,3.2,2.1,5.4,3.1C882.2,637.2,884.6,637.7,887,637.7z"/>
		<path class="st5" d="M926.7,642.9c-5.4,0-9.6-1.6-12.6-4.8c-3-3.2-4.6-7.4-4.6-12.5c0-5.2,1.5-9.4,4.6-12.7
			c3.1-3.2,7.3-4.8,12.7-4.8c5.4,0,9.5,1.6,12.5,4.8c3,3.2,4.5,7.4,4.5,12.7c0,5.1-1.5,9.3-4.5,12.5
			C936.2,641.3,932,642.9,926.7,642.9z M926.7,638.1c3.5,0,6.2-1.1,8-3.4c1.8-2.3,2.8-5.3,2.8-9c0-3.8-0.9-6.9-2.8-9.2
			c-1.9-2.3-4.5-3.5-8-3.5c-3.5,0-6.2,1.2-8.1,3.5c-1.9,2.3-2.8,5.4-2.8,9.2c0,3.8,0.9,6.8,2.8,9
			C920.5,636.9,923.2,638.1,926.7,638.1z"/>
		<path class="st5" d="M952.1,642.2v-48.1h6v48.1H952.1z"/>
		<path class="st5" d="M980.7,643c-4.3,0-7.5-1.2-9.6-3.6c-2.1-2.4-3.2-5.7-3.2-9.8V609h5.9v20.5c0,2.9,0.7,5,2,6.4
			c1.3,1.4,3.3,2.2,5.8,2.2c2.9,0,5.2-0.8,6.8-2.5c1.6-1.7,2.5-3.8,2.5-6.4V609h6v25c0,3,0.1,5.7,0.3,8.2h-6.1l-0.2-5.3
			c-0.9,1.7-2.2,3.1-4,4.3C985.4,642.4,983.3,643,980.7,643z"/>
		<path class="st5" d="M1024.9,642.2h-2.8c-4.7,0-7.9-0.9-9.7-2.5c-1.7-1.6-2.6-4.6-2.6-9V613h-6.4v-4h6.5v-8.6l5.8-1.7V609h9v4h-9
			v18.1c0,1.2,0.1,2.1,0.2,2.9c0.2,0.7,0.4,1.4,0.8,1.9c0.3,0.5,0.9,0.9,1.7,1.1c0.8,0.2,1.6,0.4,2.6,0.5c1,0.1,2.2,0.1,3.9,0.1
			V642.2z"/>
		<path class="st5" d="M1033,642.2V609h5.9v33.2H1033z M1033,600.6v-5.5h5.9v5.5H1033z"/>
		<path class="st5" d="M1064,642.9c-5.4,0-9.6-1.6-12.6-4.8c-3-3.2-4.6-7.4-4.6-12.5c0-5.2,1.5-9.4,4.6-12.7
			c3.1-3.2,7.3-4.8,12.7-4.8c5.4,0,9.5,1.6,12.5,4.8c3,3.2,4.5,7.4,4.5,12.7c0,5.1-1.5,9.3-4.5,12.5
			C1073.5,641.3,1069.3,642.9,1064,642.9z M1064,638.1c3.5,0,6.2-1.1,8-3.4c1.8-2.3,2.8-5.3,2.8-9c0-3.8-0.9-6.9-2.8-9.2
			c-1.9-2.3-4.5-3.5-8-3.5c-3.5,0-6.2,1.2-8.1,3.5c-1.9,2.3-2.8,5.4-2.8,9.2c0,3.8,0.9,6.8,2.8,9
			C1057.8,636.9,1060.5,638.1,1064,638.1z"/>
		<path class="st5" d="M1089.4,642.2v-24c0-1.5,0-3-0.1-4.5c-0.1-1.5-0.1-2.7-0.2-3.5l-0.1-1.2h6.2l0.1,5.2c1.1-1.9,2.7-3.4,4.8-4.5
			c2.1-1.1,4.2-1.6,6.5-1.6c4.2,0,7.3,1.3,9.3,3.8c2,2.5,3,6.4,3,11.6v18.7h-6v-18.7c0-3.6-0.5-6.3-1.6-8c-1.1-1.7-3-2.6-5.7-2.6
			c-2.5,0-4.8,0.8-6.8,2.5c-2.1,1.7-3.2,3.6-3.3,5.8v20.8H1089.4z"/>
		<path class="st5" d="M1140.1,642.9c-2.9,0-5.4-0.4-7.6-1.3c-2.2-0.9-3.9-1.8-5.1-2.7l1.7-4.4c1.2,0.9,2.8,1.7,4.7,2.5
			c1.9,0.7,3.9,1.1,5.8,1.1c4.4,0,6.6-1.6,6.6-4.9c0-1.4-0.5-2.4-1.5-3c-1-0.7-2.9-1.5-5.8-2.5l-2.9-1c-1.1-0.4-2-0.8-2.8-1.1
			s-1.5-0.8-2.3-1.3c-0.8-0.5-1.4-1.1-1.9-1.7c-0.5-0.6-0.9-1.4-1.2-2.2c-0.3-0.9-0.4-1.9-0.4-3c0-1.6,0.3-3,1-4.2
			c0.7-1.2,1.6-2.2,2.7-2.9c1.1-0.7,2.4-1.2,3.8-1.6c1.4-0.4,2.9-0.5,4.5-0.5c4.4,0,8.1,1,11.1,2.9l-1.7,4.3
			c-2.9-1.6-5.8-2.3-8.7-2.3c-2.1,0-3.8,0.4-5,1.1c-1.2,0.7-1.8,1.8-1.8,3.1c0,1.2,0.4,2.1,1.1,2.7c0.7,0.6,2.1,1.2,4.2,2
			c1.9,0.6,3,1,3.3,1.1c1.4,0.5,2.5,0.9,3.3,1.2c0.8,0.3,1.7,0.8,2.6,1.4c0.9,0.6,1.7,1.2,2.2,1.8c0.5,0.6,0.9,1.4,1.3,2.3
			c0.3,0.9,0.5,2,0.5,3.2c0,1.8-0.3,3.3-1,4.6c-0.7,1.3-1.6,2.4-2.7,3.1c-1.1,0.7-2.4,1.3-3.7,1.7
			C1143.1,642.8,1141.6,642.9,1140.1,642.9z"/>
		<path class="st5" d="M1192.1,642.9c-2.5,0-4.7-0.5-6.8-1.4c-2-0.9-3.7-2.2-5-3.8c-1.3-1.6-2.3-3.4-3-5.5c-0.7-2.1-1.1-4.3-1.1-6.7
			c0-3.2,0.6-6.2,1.9-8.8c1.3-2.6,3.1-4.7,5.5-6.3c2.4-1.6,5.2-2.4,8.4-2.4c2.4,0,4.5,0.6,6.4,1.7c1.9,1.1,3.4,2.6,4.4,4.4V609h5.9
			v33.2h-6v-5.7c-1,2-2.4,3.5-4.2,4.7C1196.7,642.4,1194.5,642.9,1192.1,642.9z M1192.9,638.1c3.3,0,5.8-1.1,7.6-3.5
			c1.7-2.3,2.6-5.4,2.6-9.3c0-3.7-0.9-6.6-2.7-8.9c-1.8-2.3-4.3-3.4-7.6-3.4c-3.5,0-6.1,1.1-7.9,3.4s-2.7,5.3-2.7,9
			c0,3.7,0.9,6.8,2.7,9.1C1186.8,636.9,1189.4,638.1,1192.9,638.1z"/>
		<path class="st5" d="M1219.3,642.2v-24c0-1.5,0-3-0.1-4.5c-0.1-1.5-0.1-2.7-0.2-3.5l-0.1-1.2h6.2l0.1,5.2c1.1-1.9,2.7-3.4,4.8-4.5
			c2.1-1.1,4.2-1.6,6.5-1.6c4.2,0,7.3,1.3,9.3,3.8c2,2.5,3,6.4,3,11.6v18.7h-6v-18.7c0-3.6-0.5-6.3-1.6-8c-1.1-1.7-3-2.6-5.7-2.6
			c-2.5,0-4.8,0.8-6.8,2.5c-2.1,1.7-3.2,3.6-3.3,5.8v20.8H1219.3z"/>
		<path class="st5" d="M1271.7,642.9c-4.4,0-8.1-1.6-10.9-4.7c-2.8-3.1-4.3-7.3-4.3-12.5c0-3.4,0.6-6.4,1.8-9.1
			c1.2-2.6,3-4.7,5.4-6.2s5.1-2.3,8.3-2.3c2.5,0,4.8,0.6,6.7,1.7c1.9,1.1,3.2,2.5,4,4.1v-19.9h6v39.5c0,2,0.1,4.9,0.2,8.6h-6.1
			l-0.1-5.6c-0.7,1.7-2,3.2-3.9,4.5C1276.9,642.3,1274.5,642.9,1271.7,642.9z M1272.6,638.1c3.3,0,5.8-1.2,7.5-3.5
			c1.8-2.3,2.7-5.4,2.7-9.3c0-3.6-0.9-6.6-2.7-8.9c-1.8-2.3-4.3-3.4-7.4-3.4c-3.2,0-5.6,1.2-7.4,3.5c-1.7,2.3-2.6,5.3-2.6,9.1
			c0,3.8,0.9,6.8,2.6,9.1C1266.9,636.9,1269.4,638.1,1272.6,638.1z"/>
		<path class="st5" d="M1338.9,642.9c-3.1,0-6.1-0.5-8.9-1.6c-2.8-1-5.2-2.5-7.4-4.5c-2.1-2-3.8-4.5-5.1-7.5
			c-1.3-3.1-1.9-6.5-1.9-10.3c0-3.7,0.6-7.1,1.8-10.2s2.8-5.7,4.8-7.9c2.1-2.1,4.5-3.8,7.3-5c2.8-1.2,5.8-1.8,9.1-1.8
			c5.9,0,10.9,1.6,14.8,4.9l-2.5,4.2c-3.5-2.6-7.5-3.9-11.9-3.9c-3.4,0-6.4,0.9-8.9,2.6c-2.6,1.7-4.6,4.1-5.9,7
			c-1.4,3-2.1,6.3-2.1,9.9c0,5.7,1.6,10.3,4.7,13.7c3.2,3.4,7.3,5.1,12.3,5.1c4.8,0,9.2-1.6,13.3-4.7l2.1,4.9
			C1350.1,641.3,1344.8,642.9,1338.9,642.9z"/>
		<path class="st5" d="M1377.3,642.9c-5.4,0-9.6-1.6-12.6-4.8c-3-3.2-4.6-7.4-4.6-12.5c0-5.2,1.5-9.4,4.6-12.7
			c3.1-3.2,7.3-4.8,12.7-4.8c5.4,0,9.5,1.6,12.5,4.8c3,3.2,4.5,7.4,4.5,12.7c0,5.1-1.5,9.3-4.5,12.5
			C1386.8,641.3,1382.6,642.9,1377.3,642.9z M1377.3,638.1c3.5,0,6.2-1.1,8-3.4c1.8-2.3,2.8-5.3,2.8-9c0-3.8-0.9-6.9-2.8-9.2
			c-1.9-2.3-4.5-3.5-8-3.5c-3.5,0-6.2,1.2-8.1,3.5c-1.9,2.3-2.8,5.4-2.8,9.2c0,3.8,0.9,6.8,2.8,9
			C1371,636.9,1373.7,638.1,1377.3,638.1z"/>
		<path class="st5" d="M1402.7,642.2v-24c0-1.5,0-3-0.1-4.5c-0.1-1.5-0.1-2.7-0.2-3.5l-0.1-1.2h6.2l0.1,5.2c1.1-1.9,2.7-3.4,4.8-4.5
			c2.1-1.1,4.2-1.6,6.5-1.6c4.2,0,7.3,1.3,9.3,3.8c2,2.5,3,6.4,3,11.6v18.7h-6v-18.7c0-3.6-0.5-6.3-1.6-8c-1.1-1.7-3-2.6-5.7-2.6
			c-2.5,0-4.8,0.8-6.8,2.5c-2.1,1.7-3.2,3.6-3.3,5.8v20.8H1402.7z"/>
		<path class="st5" d="M1453.3,642.9c-2.9,0-5.4-0.4-7.6-1.3c-2.2-0.9-3.9-1.8-5.1-2.7l1.7-4.4c1.2,0.9,2.8,1.7,4.7,2.5
			c1.9,0.7,3.9,1.1,5.8,1.1c4.4,0,6.6-1.6,6.6-4.9c0-1.4-0.5-2.4-1.5-3c-1-0.7-2.9-1.5-5.8-2.5l-2.9-1c-1.1-0.4-2-0.8-2.8-1.1
			s-1.5-0.8-2.3-1.3c-0.8-0.5-1.4-1.1-1.9-1.7c-0.5-0.6-0.9-1.4-1.2-2.2c-0.3-0.9-0.4-1.9-0.4-3c0-1.6,0.3-3,1-4.2
			c0.7-1.2,1.6-2.2,2.7-2.9c1.1-0.7,2.4-1.2,3.8-1.6c1.4-0.4,2.9-0.5,4.5-0.5c4.4,0,8.1,1,11.1,2.9l-1.7,4.3
			c-2.9-1.6-5.8-2.3-8.7-2.3c-2.1,0-3.8,0.4-5,1.1c-1.2,0.7-1.8,1.8-1.8,3.1c0,1.2,0.4,2.1,1.1,2.7c0.7,0.6,2.1,1.2,4.2,2
			c1.9,0.6,3,1,3.3,1.1c1.4,0.5,2.5,0.9,3.3,1.2c0.8,0.3,1.7,0.8,2.6,1.4c0.9,0.6,1.7,1.2,2.2,1.8c0.5,0.6,0.9,1.4,1.3,2.3
			c0.3,0.9,0.5,2,0.5,3.2c0,1.8-0.3,3.3-1,4.6c-0.7,1.3-1.6,2.4-2.7,3.1c-1.1,0.7-2.4,1.3-3.7,1.7
			C1456.3,642.8,1454.9,642.9,1453.3,642.9z"/>
		<path class="st5" d="M1485.6,643c-4.3,0-7.5-1.2-9.6-3.6s-3.2-5.7-3.2-9.8V609h5.9v20.5c0,2.9,0.7,5,2,6.4
			c1.3,1.4,3.3,2.2,5.8,2.2c2.9,0,5.2-0.8,6.8-2.5c1.6-1.7,2.5-3.8,2.5-6.4V609h6v25c0,3,0.1,5.7,0.3,8.2h-6.1l-0.2-5.3
			c-0.9,1.7-2.2,3.1-4,4.3C1490.2,642.4,1488.1,643,1485.6,643z"/>
		<path class="st5" d="M1512.6,642.2v-48.1h6v48.1H1512.6z"/>
		<path class="st5" d="M1546.1,642.2h-2.8c-4.7,0-7.9-0.9-9.7-2.5c-1.7-1.6-2.6-4.6-2.6-9V613h-6.4v-4h6.5v-8.6l5.8-1.7V609h9v4h-9
			v18.1c0,1.2,0.1,2.1,0.2,2.9c0.2,0.7,0.4,1.4,0.8,1.9c0.3,0.5,0.9,0.9,1.7,1.1c0.8,0.2,1.6,0.4,2.6,0.5c1,0.1,2.2,0.1,3.9,0.1
			V642.2z"/>
		<path class="st5" d="M1567.7,642.9c-2.5,0-4.7-0.5-6.8-1.4c-2-0.9-3.7-2.2-5-3.8c-1.3-1.6-2.3-3.4-3-5.5c-0.7-2.1-1.1-4.3-1.1-6.7
			c0-3.2,0.6-6.2,1.9-8.8c1.3-2.6,3.1-4.7,5.5-6.3c2.4-1.6,5.2-2.4,8.4-2.4c2.4,0,4.5,0.6,6.4,1.7c1.9,1.1,3.4,2.6,4.4,4.4V609h5.9
			v33.2h-6v-5.7c-1,2-2.4,3.5-4.2,4.7C1572.4,642.4,1570.2,642.9,1567.7,642.9z M1568.6,638.1c3.3,0,5.8-1.1,7.6-3.5
			c1.7-2.3,2.6-5.4,2.6-9.3c0-3.7-0.9-6.6-2.7-8.9c-1.8-2.3-4.3-3.4-7.6-3.4c-3.5,0-6.1,1.1-7.9,3.4s-2.7,5.3-2.7,9
			c0,3.7,0.9,6.8,2.7,9.1C1562.4,636.9,1565.1,638.1,1568.6,638.1z"/>
		<path class="st5" d="M1595,642.2v-24c0-1.5,0-3-0.1-4.5c-0.1-1.5-0.1-2.7-0.2-3.5l-0.1-1.2h6.2l0.1,5.2c1.1-1.9,2.7-3.4,4.8-4.5
			c2.1-1.1,4.2-1.6,6.5-1.6c4.2,0,7.3,1.3,9.3,3.8c2,2.5,3,6.4,3,11.6v18.7h-6v-18.7c0-3.6-0.5-6.3-1.6-8c-1.1-1.7-3-2.6-5.7-2.6
			c-2.5,0-4.8,0.8-6.8,2.5c-2.1,1.7-3.2,3.6-3.3,5.8v20.8H1595z"/>
		<path class="st5" d="M1649.1,642.9c-5.1,0-9.2-1.6-12.3-4.8c-3.1-3.2-4.6-7.3-4.6-12.3c0-5.2,1.6-9.5,4.7-12.8
			c3.1-3.3,7.3-4.9,12.4-4.9c4.6,0,8.3,1.3,11,4l-2.1,4c-2.3-2-5.1-3-8.5-3c-3.4,0-6.1,1.1-8.2,3.3c-2.1,2.2-3.1,5.4-3.1,9.4
			c0,3.8,1,6.8,3,9c2,2.2,4.8,3.3,8.2,3.3c3.3,0,6.4-1,9.1-3.1l1.9,4.3C1657.3,641.7,1653.5,642.9,1649.1,642.9z"/>
		<path class="st5" d="M1669.4,656.3l-2.4-4.1c5.4-1.8,8.7-4.6,10-8.5l0.6-1.7l-13.6-33h6.3l10.3,26.6l9.6-26.6h6l-13.4,35
			c-1.2,3.1-2.9,5.8-5.2,7.9C1675.2,654,1672.6,655.5,1669.4,656.3z"/>
	</g>
</g>
<g id="DGTIES">
	<path class="st6" d="M756.8,577.1V361.4h55.7c42.8,0,75.1,8.9,97.2,26.7c22,17.8,33,44.6,33,80.3c0,35-10.4,61.8-31.2,80.5
		c-20.8,18.7-50.8,28.1-90,28.1H756.8z M790.9,548.1h32.6c27.3,0,47.9-6.9,62.1-20.7c14.1-13.8,21.2-33.4,21.2-59
		c0-26.2-7.4-45.7-22.2-58.6c-14.8-12.9-37.7-19.3-68.6-19.3h-25V548.1z"/>
	<path class="st6" d="M1069,580.5c-35.3,0-62.5-9.7-81.5-29c-19-19.4-28.4-45.6-28.4-78.6c0-16,2.7-31,8-45.1
		c5.3-14.1,12.8-26.3,22.4-36.7c9.6-10.4,21.5-18.6,35.8-24.6c14.3-6,29.9-9,47-9c17,0,31,2,42.1,6c11.1,4,20.9,9.2,29.4,15.5
		l-13.6,24c-15.5-10.9-34.7-16.3-57.5-16.3c-12.1,0-23.2,2.3-33.2,6.8c-10,4.5-18.3,10.7-24.7,18.5c-6.5,7.8-11.5,16.8-15,26.9
		c-3.5,10.1-5.3,20.9-5.3,32.4c0,24.5,6.4,44,19.3,58.4c12.9,14.5,31.8,21.7,56.6,21.7c14.5,0,28.1-2.1,40.7-6.2v-54.8h-51.8v-29.2
		h86.2v103.2C1121.8,575.1,1096.3,580.5,1069,580.5z"/>
	<path class="st7" d="M1233.9,577.1V379.8h-70.3v-18.4h163.2v18.4h-70.6v197.3H1233.9z"/>
	<path class="st7" d="M1352.2,577.1V361.4h22.2v215.6H1352.2z"/>
	<path class="st7" d="M1403.9,577.1V361.4h124.6v18.4H1426v77h96.7v18.4H1426v83.5h106.9v18.4H1403.9z"/>
	<path class="st7" d="M1695,519.3c0,19.3-6.3,34.2-19,44.9c-12.6,10.7-29.7,16-51.1,16c-9.1,0-17.7-0.9-25.8-2.7
		c-8.1-1.8-15.1-4.2-20.7-7.2c-5.7-3-10.1-5.5-13.3-7.7c-3.2-2.2-6-4.3-8.4-6.5l9.9-15.7c17.3,14.4,36.5,21.6,57.8,21.6
		c15.5,0,27.5-3.8,35.9-11.3c8.4-7.5,12.7-17.8,12.7-31c0-7.9-1.2-14.3-3.7-19.1c-2.5-4.8-6.8-9.1-13.1-12.7
		c-6.3-3.7-15.4-7.2-27.5-10.7c-0.4-0.1-1.9-0.5-4.5-1.3c-2.6-0.7-5.4-1.5-8.4-2.2c-3-0.7-4.5-1.2-4.7-1.3
		c-9.5-2.7-17.5-5.6-23.9-8.7c-6.5-3.1-12.1-7-17-11.6c-4.9-4.6-8.5-10.1-10.7-16.4c-2.3-6.4-3.4-13.8-3.4-22.4
		c0-17.6,6.3-31.2,18.8-41c12.5-9.8,29.3-14.7,50.4-14.7c7.5,0,14.6,0.6,21.2,1.7c6.6,1.1,11.9,2.4,16,3.8c4,1.4,8,3.2,11.9,5.5
		c3.9,2.3,6.6,4,8,5.2c1.4,1.2,3.2,2.7,5.3,4.6l-10.5,15.1c-4.6-4.5-11.2-8.6-19.5-12.2c-8.4-3.6-18.6-5.4-30.7-5.4
		c-14.8,0-26.5,3.2-35,9.6c-8.5,6.4-12.8,15.5-12.8,27.3c0,11.7,2.5,20.2,7.6,25.6c5,5.4,15.1,10.3,30.1,14.5c0.5,0.2,3.4,1,8.7,2.4
		c5.3,1.4,8.2,2.2,8.6,2.3c4.9,1.4,9.5,2.8,13.6,4.1c4.1,1.4,7.9,2.8,11.5,4.4c3.6,1.5,6.8,3.1,9.6,4.7c2.9,1.6,5.5,3.3,7.8,5
		c2.4,1.8,4.5,3.6,6.3,5.6c1.8,1.9,3.4,4,4.8,6.1c1.4,2.2,2.6,4.4,3.6,6.7c1,2.3,1.8,4.8,2.4,7.5c0.6,2.7,1,5.4,1.3,8.2
		C1694.9,512.9,1695,516,1695,519.3z"/>
	<text id="CREATIVE_SOLUTIONS" transform="matrix(1 0 0 1 753 645.7524)" class="st7 st8 st9">CREATIVE SOLUTIONS</text>
	<g class="st0">
	</g>
	<path class="st7" d="M1215.9,259.4V62.2h-70.3V43.8h163.2v18.4h-70.6v197.3H1215.9z"/>
</g>
<g id="GUIDES">
	<g>
		<g id="HEX_7_">
			<path class="st2" d="M574.4,469.8c0,19.8-14,44.1-31.2,54L390,612.2c-17.1,9.9-45.2,9.9-62.4,0l-153.2-88.4
				c-17.1-9.9-31.2-34.2-31.2-54V292.9c0-19.8,14-44.1,31.2-54l153.2-88.4c17.1-9.9,45.2-9.9,62.4,0l153.2,88.4
				c17.1,9.9,31.2,34.2,31.2,54V469.8z"/>
		</g>
		<g>
			<defs>
				<polyline id="SVGID_1_" points="143.7,256.9 145.4,257.9 305,347.4 305.7,599 143.7,505.8 				"/>
			</defs>
			<clipPath id="SVGID_2_">
				<use xlink:href="#SVGID_1_"  style="overflow:visible;"/>
			</clipPath>
			<g class="st10">
				<path class="st5" d="M574.7,469.8c0,19.8-14,44.1-31.2,54l-153.2,88.4c-17.1,9.9-45.2,9.9-62.4,0l-153.2-88.4
					c-17.1-9.9-31.2-34.2-31.2-54V292.9c0-19.8,14-44.1,31.2-54L328,150.5c17.1-9.9,45.2-9.9,62.4,0l153.2,88.4
					c17.1,9.9,31.2,34.2,31.2,54V469.8z"/>
			</g>
		</g>
		<polygon id="TAIL_2_" class="st2" points="397.4,154.8 310.6,103.5 310.6,161.8 		"/>
		<g id="HEX_3_">
			<path class="st3" d="M715.4,374.4c0-19.8-14-44.1-31.2-54L531,232c-17.1-9.9-45.2-9.9-62.4,0l-153.2,88.4
				c-17.1,9.9-31.2,34.2-31.2,54v176.9c0,19.8,14,44.1,31.2,54l153.2,88.4c17.1,9.9,45.2,9.9,62.4,0l153.2-88.4
				c17.1-9.9,31.2-34.2,31.2-54V374.4z"/>
		</g>
		<g id="DEPTH_1_">
			<defs>
				<polygon id="SVGID_3_" points="301.7,618.5 446.7,744.5 706.3,613.4 715.4,578.3 388.7,395.1 				"/>
			</defs>
			<clipPath id="SVGID_4_">
				<use xlink:href="#SVGID_3_"  style="overflow:visible;"/>
			</clipPath>
			<g class="st11">
				<path class="st12" d="M715.4,374.8c0-19.8-14-44.1-31.2-54L531,232.4c-17.1-9.9-45.2-9.9-62.4,0l-153.2,88.4
					c-17.1,9.9-31.2,34.2-31.2,54v176.9c0,19.8,14,44.1,31.2,54l153.2,88.4c17.1,9.9,45.2,9.9,62.4,0l153.2-88.4
					c17.1-9.9,31.2-34.2,31.2-54V374.8z"/>
			</g>
		</g>
		<polygon id="TAIL_1_" class="st13" points="546.1,685.2 451.6,739.9 451.6,678.4 		"/>
		<g>
			<path class="st4" d="M314.5,319.9c-17.1,9.9-31.2,34.2-31.2,54v177.7c0,19.8,14,44.1,31.2,54l10.4,6c17.1,9.9,45.2,9.9,62.4,0
				l152.9-88.3c17.1-9.9,31.2-34.2,31.2-54V291.6c0-19.8-14-44.1-31.2-54l-10.4-6c-17.1-9.9-45.2-9.9-62.4,0L314.5,319.9z"/>
		</g>
		<g>
			<text transform="matrix(1 0 0 1 730.896 570.5674)"><tspan x="0" y="0" class="st4 st8 st14">DG</tspan><tspan x="475.1" y="0" class="st5 st8 st14">TIES</tspan></text>
		</g>
		<text transform="matrix(1 0 0 1 751.3218 671.5508)" class="st5 st8 st15">CREATIVE SOLUTIONS</text>
	</g>
</g>
</svg>
