<?xml version="1.0" encoding="utf-8"?><svg width="2002" height="1444" viewBox="0 0 2002 1444" xmlns="http://www.w3.org/2000/svg" xmlns:xlink="http://www.w3.org/1999/xlink"><svg viewBox="-1.08 -1.08 2162.16 866.16" width="2002" height="802" id="DGTIES_FA_HORIZONTAL_FLAT_colored_2018_01_22" xmlns="http://www.w3.org/2000/svg"><style>.ast0{display:none}.ast1{display:inline}.ast2{fill:#58c7d8}.ast3{fill:#eb228d}.ast4{fill:#29306f}.ast5{fill:#17a1c8}.ast6,.ast7{display:none;fill:#29306f}.ast7{fill:#17a1c8}.ast8{font-family:'Muli-SemiBold'}.ast9{font-size:72px}.ast10{clip-path:url(#aSVGID_2_)}.ast11{clip-path:url(#aSVGID_4_)}.ast12{fill:#d6137a}.ast13{fill:#d61479}.ast14{font-size:315.0034px}.ast15{font-size:100px}</style><g id="aLOGO" class="ast0"><g id="aBLUE_HEX" class="ast1"><path class="ast2" d="M575.1 470.4c0 19.8-14 44.1-31.2 54l-153.2 88.4c-17.1 9.9-45.2 9.9-62.4 0l-153.2-88.4c-17.1-9.9-31.2-34.2-31.2-54V293.5c0-19.8 14-44.1 31.2-54l153.2-88.4c17.1-9.9 45.2-9.9 62.4 0l153.2 88.4c17.1 9.9 31.2 34.2 31.2 54v176.9z" id="aHEX_2_"/><path id="aTAIL_4_" class="ast2" d="M398.1 155.4l-86.8-51.2v58.2z"/></g><g id="aMAGENTA_HEX" class="ast1"><path class="ast3" d="M716.1 375c0-19.8-14-44.1-31.2-54l-153.2-88.4c-17.1-9.9-45.2-9.9-62.4 0L316.2 321c-17.1 9.9-31.2 34.2-31.2 54v176.9c0 19.8 14 44.1 31.2 54l153.2 88.4c17.1 9.9 45.2 9.9 62.4 0L685 605.9c17.1-9.9 31.2-34.2 31.2-54V375z" id="aHEX_1_"/><path id="aTAIL" class="ast3" d="M546.7 685.9l-94.4 54.6V679z"/></g><g id="aCONVERGE" class="ast1"><path class="ast4" d="M315.2 320.5c-17.1 9.9-31.2 34.2-31.2 54v177.7c0 19.8 14 44.1 31.2 54l10.4 6c17.1 9.9 45.2 9.9 62.4 0L540.9 524c17.1-9.9 31.2-34.2 31.2-54V292.2c0-19.8-14-44.1-31.2-54l-10.4-6c-17.1-9.9-45.2-9.9-62.4 0l-152.9 88.3z"/></g></g><g id="aTAG" class="ast0"><g class="ast1"><path class="ast5" d="M756.1 642.2V595h6.2v47.2h-6.2zM794.5 642.9c-3.1 0-6.1-.5-8.9-1.6-2.8-1-5.2-2.5-7.4-4.5-2.1-2-3.8-4.5-5.1-7.5-1.3-3.1-1.9-6.5-1.9-10.3 0-3.7.6-7.1 1.8-10.2 1.2-3.1 2.8-5.7 4.8-7.9 2.1-2.1 4.5-3.8 7.3-5 2.8-1.2 5.8-1.8 9.1-1.8 5.9 0 10.9 1.6 14.8 4.9l-2.5 4.2c-3.5-2.6-7.5-3.9-11.9-3.9-3.4 0-6.4.9-8.9 2.6-2.6 1.7-4.6 4.1-5.9 7-1.4 3-2.1 6.3-2.1 9.9 0 5.7 1.6 10.3 4.7 13.7 3.2 3.4 7.3 5.1 12.3 5.1 4.8 0 9.2-1.6 13.3-4.7l2.1 4.9c-4.4 3.5-9.6 5.1-15.6 5.1zM827.9 642.2v-42h-15.1V595h36.4v5.2H834v42h-6.1zM887 637.7c1.3 0 2.5-.1 3.5-.4 1-.2 2-.6 2.7-1 .8-.4 1.4-1 2-1.7.5-.7.9-1.4 1.2-2.3.3-.9.4-1.8.4-2.8 0-1.1-.1-2.1-.4-2.8-.2-.8-.7-1.5-1.4-2.2-.7-.7-1.6-1.3-2.7-1.9-1.2-.6-2.7-1.1-4.6-1.7-.2-.1-.7-.2-1.4-.4s-1.2-.4-1.5-.4c-4.5-1.3-7.8-2.9-9.9-4.9-2.1-2-3.1-4.8-3.1-8.6 0-2.7.7-4.9 2.1-6.8 1.4-1.9 3.2-3.3 5.6-4.2 2.3-.9 5-1.4 8-1.4 6.4 0 11.2 1.6 14.5 4.9l-3.1 4.2c-1.1-1.1-2.6-2-4.5-2.8-1.9-.8-4-1.1-6.3-1.1-3 0-5.4.6-7.1 1.8-1.8 1.2-2.7 2.9-2.7 5.2 0 1.6.2 2.8.6 3.7.4.9 1.2 1.7 2.3 2.4 1.1.7 2.8 1.4 5 2.1 0 0 .4.1 1.2.4.8.2 1.3.4 1.5.4 2.8.8 5 1.7 6.8 2.6 1.8.9 3.2 1.9 4.3 3.1 1.1 1.2 1.8 2.4 2.3 3.8.4 1.4.6 3 .6 5 0 2.2-.4 4.1-1.2 5.8-.8 1.7-2 3.1-3.5 4.1-1.5 1.1-3.2 1.9-5.1 2.4-1.9.5-4 .8-6.2.8-3.5 0-6.7-.6-9.4-1.7-2.8-1.2-4.8-2.3-6.1-3.6l2.8-4.5c1.4 1.1 3.2 2.1 5.4 3.1 2.6.9 5 1.4 7.4 1.4zM926.7 642.9c-5.4 0-9.6-1.6-12.6-4.8-3-3.2-4.6-7.4-4.6-12.5 0-5.2 1.5-9.4 4.6-12.7 3.1-3.2 7.3-4.8 12.7-4.8 5.4 0 9.5 1.6 12.5 4.8 3 3.2 4.5 7.4 4.5 12.7 0 5.1-1.5 9.3-4.5 12.5-3.1 3.2-7.3 4.8-12.6 4.8zm0-4.8c3.5 0 6.2-1.1 8-3.4 1.8-2.3 2.8-5.3 2.8-9 0-3.8-.9-6.9-2.8-9.2-1.9-2.3-4.5-3.5-8-3.5s-6.2 1.2-8.1 3.5c-1.9 2.3-2.8 5.4-2.8 9.2 0 3.8.9 6.8 2.8 9s4.6 3.4 8.1 3.4zM952.1 642.2v-48.1h6v48.1h-6zM980.7 643c-4.3 0-7.5-1.2-9.6-3.6-2.1-2.4-3.2-5.7-3.2-9.8V609h5.9v20.5c0 2.9.7 5 2 6.4 1.3 1.4 3.3 2.2 5.8 2.2 2.9 0 5.2-.8 6.8-2.5 1.6-1.7 2.5-3.8 2.5-6.4V609h6v25c0 3 .1 5.7.3 8.2h-6.1l-.2-5.3c-.9 1.7-2.2 3.1-4 4.3-1.5 1.2-3.6 1.8-6.2 1.8zM1024.9 642.2h-2.8c-4.7 0-7.9-.9-9.7-2.5-1.7-1.6-2.6-4.6-2.6-9V613h-6.4v-4h6.5v-8.6l5.8-1.7V609h9v4h-9v18.1c0 1.2.1 2.1.2 2.9.2.7.4 1.4.8 1.9.3.5.9.9 1.7 1.1.8.2 1.6.4 2.6.5 1 .1 2.2.1 3.9.1v4.6zM1033 642.2V609h5.9v33.2h-5.9zm0-41.6v-5.5h5.9v5.5h-5.9zM1064 642.9c-5.4 0-9.6-1.6-12.6-4.8-3-3.2-4.6-7.4-4.6-12.5 0-5.2 1.5-9.4 4.6-12.7 3.1-3.2 7.3-4.8 12.7-4.8 5.4 0 9.5 1.6 12.5 4.8 3 3.2 4.5 7.4 4.5 12.7 0 5.1-1.5 9.3-4.5 12.5-3.1 3.2-7.3 4.8-12.6 4.8zm0-4.8c3.5 0 6.2-1.1 8-3.4 1.8-2.3 2.8-5.3 2.8-9 0-3.8-.9-6.9-2.8-9.2-1.9-2.3-4.5-3.5-8-3.5s-6.2 1.2-8.1 3.5c-1.9 2.3-2.8 5.4-2.8 9.2 0 3.8.9 6.8 2.8 9s4.6 3.4 8.1 3.4zM1089.4 642.2v-24c0-1.5 0-3-.1-4.5s-.1-2.7-.2-3.5l-.1-1.2h6.2l.1 5.2c1.1-1.9 2.7-3.4 4.8-4.5 2.1-1.1 4.2-1.6 6.5-1.6 4.2 0 7.3 1.3 9.3 3.8 2 2.5 3 6.4 3 11.6v18.7h-6v-18.7c0-3.6-.5-6.3-1.6-8-1.1-1.7-3-2.6-5.7-2.6-2.5 0-4.8.8-6.8 2.5-2.1 1.7-3.2 3.6-3.3 5.8V642h-6.1zM1140.1 642.9c-2.9 0-5.4-.4-7.6-1.3-2.2-.9-3.9-1.8-5.1-2.7l1.7-4.4c1.2.9 2.8 1.7 4.7 2.5 1.9.7 3.9 1.1 5.8 1.1 4.4 0 6.6-1.6 6.6-4.9 0-1.4-.5-2.4-1.5-3-1-.7-2.9-1.5-5.8-2.5l-2.9-1c-1.1-.4-2-.8-2.8-1.1s-1.5-.8-2.3-1.3c-.8-.5-1.4-1.1-1.9-1.7-.5-.6-.9-1.4-1.2-2.2-.3-.9-.4-1.9-.4-3 0-1.6.3-3 1-4.2.7-1.2 1.6-2.2 2.7-2.9 1.1-.7 2.4-1.2 3.8-1.6 1.4-.4 2.9-.5 4.5-.5 4.4 0 8.1 1 11.1 2.9l-1.7 4.3c-2.9-1.6-5.8-2.3-8.7-2.3-2.1 0-3.8.4-5 1.1-1.2.7-1.8 1.8-1.8 3.1 0 1.2.4 2.1 1.1 2.7.7.6 2.1 1.2 4.2 2 1.9.6 3 1 3.3 1.1 1.4.5 2.5.9 3.3 1.2.8.3 1.7.8 2.6 1.4.9.6 1.7 1.2 2.2 1.8.5.6.9 1.4 1.3 2.3.3.9.5 2 .5 3.2 0 1.8-.3 3.3-1 4.6-.7 1.3-1.6 2.4-2.7 3.1-1.1.7-2.4 1.3-3.7 1.7-1.3.4-2.8.5-4.3.5zM1192.1 642.9c-2.5 0-4.7-.5-6.8-1.4-2-.9-3.7-2.2-5-3.8-1.3-1.6-2.3-3.4-3-5.5-.7-2.1-1.1-4.3-1.1-6.7 0-3.2.6-6.2 1.9-8.8 1.3-2.6 3.1-4.7 5.5-6.3 2.4-1.6 5.2-2.4 8.4-2.4 2.4 0 4.5.6 6.4 1.7 1.9 1.1 3.4 2.6 4.4 4.4V609h5.9v33.2h-6v-5.7c-1 2-2.4 3.5-4.2 4.7-1.8 1.2-4 1.7-6.4 1.7zm.8-4.8c3.3 0 5.8-1.1 7.6-3.5 1.7-2.3 2.6-5.4 2.6-9.3 0-3.7-.9-6.6-2.7-8.9-1.8-2.3-4.3-3.4-7.6-3.4-3.5 0-6.1 1.1-7.9 3.4s-2.7 5.3-2.7 9 .9 6.8 2.7 9.1c1.9 2.4 4.5 3.6 8 3.6zM1219.3 642.2v-24c0-1.5 0-3-.1-4.5s-.1-2.7-.2-3.5l-.1-1.2h6.2l.1 5.2c1.1-1.9 2.7-3.4 4.8-4.5 2.1-1.1 4.2-1.6 6.5-1.6 4.2 0 7.3 1.3 9.3 3.8 2 2.5 3 6.4 3 11.6v18.7h-6v-18.7c0-3.6-.5-6.3-1.6-8-1.1-1.7-3-2.6-5.7-2.6-2.5 0-4.8.8-6.8 2.5-2.1 1.7-3.2 3.6-3.3 5.8V642h-6.1zM1271.7 642.9c-4.4 0-8.1-1.6-10.9-4.7-2.8-3.1-4.3-7.3-4.3-12.5 0-3.4.6-6.4 1.8-9.1 1.2-2.6 3-4.7 5.4-6.2s5.1-2.3 8.3-2.3c2.5 0 4.8.6 6.7 1.7 1.9 1.1 3.2 2.5 4 4.1V594h6v39.5c0 2 .1 4.9.2 8.6h-6.1l-.1-5.6c-.7 1.7-2 3.2-3.9 4.5-1.9 1.3-4.3 1.9-7.1 1.9zm.9-4.8c3.3 0 5.8-1.2 7.5-3.5 1.8-2.3 2.7-5.4 2.7-9.3 0-3.6-.9-6.6-2.7-8.9-1.8-2.3-4.3-3.4-7.4-3.4-3.2 0-5.6 1.2-7.4 3.5-1.7 2.3-2.6 5.3-2.6 9.1s.9 6.8 2.6 9.1c1.6 2.2 4.1 3.4 7.3 3.4zM1338.9 642.9c-3.1 0-6.1-.5-8.9-1.6-2.8-1-5.2-2.5-7.4-4.5-2.1-2-3.8-4.5-5.1-7.5-1.3-3.1-1.9-6.5-1.9-10.3 0-3.7.6-7.1 1.8-10.2s2.8-5.7 4.8-7.9c2.1-2.1 4.5-3.8 7.3-5 2.8-1.2 5.8-1.8 9.1-1.8 5.9 0 10.9 1.6 14.8 4.9l-2.5 4.2c-3.5-2.6-7.5-3.9-11.9-3.9-3.4 0-6.4.9-8.9 2.6-2.6 1.7-4.6 4.1-5.9 7-1.4 3-2.1 6.3-2.1 9.9 0 5.7 1.6 10.3 4.7 13.7 3.2 3.4 7.3 5.1 12.3 5.1 4.8 0 9.2-1.6 13.3-4.7l2.1 4.9c-4.4 3.5-9.7 5.1-15.6 5.1zM1377.3 642.9c-5.4 0-9.6-1.6-12.6-4.8-3-3.2-4.6-7.4-4.6-12.5 0-5.2 1.5-9.4 4.6-12.7 3.1-3.2 7.3-4.8 12.7-4.8 5.4 0 9.5 1.6 12.5 4.8 3 3.2 4.5 7.4 4.5 12.7 0 5.1-1.5 9.3-4.5 12.5-3.1 3.2-7.3 4.8-12.6 4.8zm0-4.8c3.5 0 6.2-1.1 8-3.4 1.8-2.3 2.8-5.3 2.8-9 0-3.8-.9-6.9-2.8-9.2-1.9-2.3-4.5-3.5-8-3.5s-6.2 1.2-8.1 3.5c-1.9 2.3-2.8 5.4-2.8 9.2 0 3.8.9 6.8 2.8 9 1.8 2.2 4.5 3.4 8.1 3.4zM1402.7 642.2v-24c0-1.5 0-3-.1-4.5s-.1-2.7-.2-3.5l-.1-1.2h6.2l.1 5.2c1.1-1.9 2.7-3.4 4.8-4.5 2.1-1.1 4.2-1.6 6.5-1.6 4.2 0 7.3 1.3 9.3 3.8 2 2.5 3 6.4 3 11.6v18.7h-6v-18.7c0-3.6-.5-6.3-1.6-8-1.1-1.7-3-2.6-5.7-2.6-2.5 0-4.8.8-6.8 2.5-2.1 1.7-3.2 3.6-3.3 5.8V642h-6.1zM1453.3 642.9c-2.9 0-5.4-.4-7.6-1.3-2.2-.9-3.9-1.8-5.1-2.7l1.7-4.4c1.2.9 2.8 1.7 4.7 2.5 1.9.7 3.9 1.1 5.8 1.1 4.4 0 6.6-1.6 6.6-4.9 0-1.4-.5-2.4-1.5-3-1-.7-2.9-1.5-5.8-2.5l-2.9-1c-1.1-.4-2-.8-2.8-1.1s-1.5-.8-2.3-1.3c-.8-.5-1.4-1.1-1.9-1.7-.5-.6-.9-1.4-1.2-2.2-.3-.9-.4-1.9-.4-3 0-1.6.3-3 1-4.2.7-1.2 1.6-2.2 2.7-2.9 1.1-.7 2.4-1.2 3.8-1.6 1.4-.4 2.9-.5 4.5-.5 4.4 0 8.1 1 11.1 2.9l-1.7 4.3c-2.9-1.6-5.8-2.3-8.7-2.3-2.1 0-3.8.4-5 1.1-1.2.7-1.8 1.8-1.8 3.1 0 1.2.4 2.1 1.1 2.7.7.6 2.1 1.2 4.2 2 1.9.6 3 1 3.3 1.1 1.4.5 2.5.9 3.3 1.2.8.3 1.7.8 2.6 1.4.9.6 1.7 1.2 2.2 1.8.5.6.9 1.4 1.3 2.3.3.9.5 2 .5 3.2 0 1.8-.3 3.3-1 4.6-.7 1.3-1.6 2.4-2.7 3.1-1.1.7-2.4 1.3-3.7 1.7-1.3.4-2.7.5-4.3.5zM1485.6 643c-4.3 0-7.5-1.2-9.6-3.6s-3.2-5.7-3.2-9.8V609h5.9v20.5c0 2.9.7 5 2 6.4 1.3 1.4 3.3 2.2 5.8 2.2 2.9 0 5.2-.8 6.8-2.5 1.6-1.7 2.5-3.8 2.5-6.4V609h6v25c0 3 .1 5.7.3 8.2h-6.1l-.2-5.3c-.9 1.7-2.2 3.1-4 4.3-1.6 1.2-3.7 1.8-6.2 1.8zM1512.6 642.2v-48.1h6v48.1h-6zM1546.1 642.2h-2.8c-4.7 0-7.9-.9-9.7-2.5-1.7-1.6-2.6-4.6-2.6-9V613h-6.4v-4h6.5v-8.6l5.8-1.7V609h9v4h-9v18.1c0 1.2.1 2.1.2 2.9.2.7.4 1.4.8 1.9.3.5.9.9 1.7 1.1.8.2 1.6.4 2.6.5 1 .1 2.2.1 3.9.1v4.6zM1567.7 642.9c-2.5 0-4.7-.5-6.8-1.4-2-.9-3.7-2.2-5-3.8-1.3-1.6-2.3-3.4-3-5.5-.7-2.1-1.1-4.3-1.1-6.7 0-3.2.6-6.2 1.9-8.8 1.3-2.6 3.1-4.7 5.5-6.3 2.4-1.6 5.2-2.4 8.4-2.4 2.4 0 4.5.6 6.4 1.7 1.9 1.1 3.4 2.6 4.4 4.4V609h5.9v33.2h-6v-5.7c-1 2-2.4 3.5-4.2 4.7-1.7 1.2-3.9 1.7-6.4 1.7zm.9-4.8c3.3 0 5.8-1.1 7.6-3.5 1.7-2.3 2.6-5.4 2.6-9.3 0-3.7-.9-6.6-2.7-8.9-1.8-2.3-4.3-3.4-7.6-3.4-3.5 0-6.1 1.1-7.9 3.4s-2.7 5.3-2.7 9 .9 6.8 2.7 9.1c1.8 2.4 4.5 3.6 8 3.6zM1595 642.2v-24c0-1.5 0-3-.1-4.5s-.1-2.7-.2-3.5l-.1-1.2h6.2l.1 5.2c1.1-1.9 2.7-3.4 4.8-4.5 2.1-1.1 4.2-1.6 6.5-1.6 4.2 0 7.3 1.3 9.3 3.8 2 2.5 3 6.4 3 11.6v18.7h-6v-18.7c0-3.6-.5-6.3-1.6-8-1.1-1.7-3-2.6-5.7-2.6-2.5 0-4.8.8-6.8 2.5-2.1 1.7-3.2 3.6-3.3 5.8V642h-6.1zM1649.1 642.9c-5.1 0-9.2-1.6-12.3-4.8-3.1-3.2-4.6-7.3-4.6-12.3 0-5.2 1.6-9.5 4.7-12.8 3.1-3.3 7.3-4.9 12.4-4.9 4.6 0 8.3 1.3 11 4l-2.1 4c-2.3-2-5.1-3-8.5-3-3.4 0-6.1 1.1-8.2 3.3-2.1 2.2-3.1 5.4-3.1 9.4 0 3.8 1 6.8 3 9s4.8 3.3 8.2 3.3c3.3 0 6.4-1 9.1-3.1l1.9 4.3c-3.3 2.4-7.1 3.6-11.5 3.6zM1669.4 656.3l-2.4-4.1c5.4-1.8 8.7-4.6 10-8.5l.6-1.7-13.6-33h6.3l10.3 26.6 9.6-26.6h6l-13.4 35c-1.2 3.1-2.9 5.8-5.2 7.9-2.4 2.1-5 3.6-8.2 4.4z"/></g></g><g id="aDGTIES"><path class="ast6" d="M756.8 577.1V361.4h55.7c42.8 0 75.1 8.9 97.2 26.7 22 17.8 33 44.6 33 80.3 0 35-10.4 61.8-31.2 80.5-20.8 18.7-50.8 28.1-90 28.1h-64.7zm34.1-29h32.6c27.3 0 47.9-6.9 62.1-20.7 14.1-13.8 21.2-33.4 21.2-59 0-26.2-7.4-45.7-22.2-58.6-14.8-12.9-37.7-19.3-68.6-19.3h-25v157.6zM1069 580.5c-35.3 0-62.5-9.7-81.5-29-19-19.4-28.4-45.6-28.4-78.6 0-16 2.7-31 8-45.1 5.3-14.1 12.8-26.3 22.4-36.7 9.6-10.4 21.5-18.6 35.8-24.6 14.3-6 29.9-9 47-9 17 0 31 2 42.1 6 11.1 4 20.9 9.2 29.4 15.5l-13.6 24c-15.5-10.9-34.7-16.3-57.5-16.3-12.1 0-23.2 2.3-33.2 6.8-10 4.5-18.3 10.7-24.7 18.5-6.5 7.8-11.5 16.8-15 26.9-3.5 10.1-5.3 20.9-5.3 32.4 0 24.5 6.4 44 19.3 58.4 12.9 14.5 31.8 21.7 56.6 21.7 14.5 0 28.1-2.1 40.7-6.2v-54.8h-51.8v-29.2h86.2v103.2c-23.7 10.7-49.2 16.1-76.5 16.1z"/><path class="ast7" d="M1233.9 577.1V379.8h-70.3v-18.4h163.2v18.4h-70.6v197.3h-22.3zM1352.2 577.1V361.4h22.2V577h-22.2zM1403.9 577.1V361.4h124.6v18.4H1426v77h96.7v18.4H1426v83.5h106.9v18.4h-129zM1695 519.3c0 19.3-6.3 34.2-19 44.9-12.6 10.7-29.7 16-51.1 16-9.1 0-17.7-.9-25.8-2.7-8.1-1.8-15.1-4.2-20.7-7.2-5.7-3-10.1-5.5-13.3-7.7-3.2-2.2-6-4.3-8.4-6.5l9.9-15.7c17.3 14.4 36.5 21.6 57.8 21.6 15.5 0 27.5-3.8 35.9-11.3 8.4-7.5 12.7-17.8 12.7-31 0-7.9-1.2-14.3-3.7-19.1-2.5-4.8-6.8-9.1-13.1-12.7-6.3-3.7-15.4-7.2-27.5-10.7-.4-.1-1.9-.5-4.5-1.3-2.6-.7-5.4-1.5-8.4-2.2-3-.7-4.5-1.2-4.7-1.3-9.5-2.7-17.5-5.6-23.9-8.7-6.5-3.1-12.1-7-17-11.6s-8.5-10.1-10.7-16.4c-2.3-6.4-3.4-13.8-3.4-22.4 0-17.6 6.3-31.2 18.8-41s29.3-14.7 50.4-14.7c7.5 0 14.6.6 21.2 1.7s11.9 2.4 16 3.8c4 1.4 8 3.2 11.9 5.5 3.9 2.3 6.6 4 8 5.2 1.4 1.2 3.2 2.7 5.3 4.6l-10.5 15.1c-4.6-4.5-11.2-8.6-19.5-12.2-8.4-3.6-18.6-5.4-30.7-5.4-14.8 0-26.5 3.2-35 9.6-8.5 6.4-12.8 15.5-12.8 27.3 0 11.7 2.5 20.2 7.6 25.6 5 5.4 15.1 10.3 30.1 14.5.5.2 3.4 1 8.7 2.4 5.3 1.4 8.2 2.2 8.6 2.3 4.9 1.4 9.5 2.8 13.6 4.1 4.1 1.4 7.9 2.8 11.5 4.4 3.6 1.5 6.8 3.1 9.6 4.7 2.9 1.6 5.5 3.3 7.8 5 2.4 1.8 4.5 3.6 6.3 5.6 1.8 1.9 3.4 4 4.8 6.1 1.4 2.2 2.6 4.4 3.6 6.7s1.8 4.8 2.4 7.5c.6 2.7 1 5.4 1.3 8.2-.2 3-.1 6.1-.1 9.4z"/><text id="aCREATIVE_SOLUTIONS" transform="translate(753 645.752)" class="ast7 ast8 ast9">CREATIVE SOLUTIONS</text><path class="ast7" d="M1215.9 259.4V62.2h-70.3V43.8h163.2v18.4h-70.6v197.3h-22.3z"/></g><g id="aGUIDES"><path class="ast2" d="M574.4 469.8c0 19.8-14 44.1-31.2 54L390 612.2c-17.1 9.9-45.2 9.9-62.4 0l-153.2-88.4c-17.1-9.9-31.2-34.2-31.2-54V292.9c0-19.8 14-44.1 31.2-54l153.2-88.4c17.1-9.9 45.2-9.9 62.4 0l153.2 88.4c17.1 9.9 31.2 34.2 31.2 54v176.9z" id="aHEX_7_"/><defs><path id="aSVGID_1_" d="M143.7 256.9l1.7 1L305 347.4l.7 251.6-162-93.2"/></defs><clipPath id="aSVGID_2_"><use xlink:href="#aSVGID_1_" overflow="visible"/></clipPath><g class="ast10"><path class="ast5" d="M574.7 469.8c0 19.8-14 44.1-31.2 54l-153.2 88.4c-17.1 9.9-45.2 9.9-62.4 0l-153.2-88.4c-17.1-9.9-31.2-34.2-31.2-54V292.9c0-19.8 14-44.1 31.2-54L328 150.5c17.1-9.9 45.2-9.9 62.4 0l153.2 88.4c17.1 9.9 31.2 34.2 31.2 54v176.9z"/></g><path id="aTAIL_2_" class="ast2" d="M397.4 154.8l-86.8-51.3v58.3z"/><path class="ast3" d="M715.4 374.4c0-19.8-14-44.1-31.2-54L531 232c-17.1-9.9-45.2-9.9-62.4 0l-153.2 88.4c-17.1 9.9-31.2 34.2-31.2 54v176.9c0 19.8 14 44.1 31.2 54l153.2 88.4c17.1 9.9 45.2 9.9 62.4 0l153.2-88.4c17.1-9.9 31.2-34.2 31.2-54V374.4z" id="aHEX_3_"/><g id="aDEPTH_1_"><defs><path id="aSVGID_3_" d="M301.7 618.5l145 126 259.6-131.1 9.1-35.1-326.7-183.2z"/></defs><clipPath id="aSVGID_4_"><use xlink:href="#aSVGID_3_" overflow="visible"/></clipPath><g class="ast11"><path class="ast12" d="M715.4 374.8c0-19.8-14-44.1-31.2-54L531 232.4c-17.1-9.9-45.2-9.9-62.4 0l-153.2 88.4c-17.1 9.9-31.2 34.2-31.2 54v176.9c0 19.8 14 44.1 31.2 54l153.2 88.4c17.1 9.9 45.2 9.9 62.4 0l153.2-88.4c17.1-9.9 31.2-34.2 31.2-54V374.8z"/></g></g><path id="aTAIL_1_" class="ast13" d="M546.1 685.2l-94.5 54.7v-61.5z"/><path class="ast4" d="M314.5 319.9c-17.1 9.9-31.2 34.2-31.2 54v177.7c0 19.8 14 44.1 31.2 54l10.4 6c17.1 9.9 45.2 9.9 62.4 0l152.9-88.3c17.1-9.9 31.2-34.2 31.2-54V291.6c0-19.8-14-44.1-31.2-54l-10.4-6c-17.1-9.9-45.2-9.9-62.4 0l-152.9 88.3z"/><g><text transform="translate(730.896 570.567)"><tspan x="0" y="0" class="ast4 ast8 ast14">DG</tspan><tspan x="475.1" y="0" class="ast5 ast8 ast14">TIES</tspan></text></g><text transform="translate(751.322 671.55)" class="ast5 ast8 ast15">CREATIVE SOLUTIONS</text></g></svg><svg id="DGTIES_FA_ICON_7.99in_x_8.88in_colored_2018_01_22" viewBox="-1 -1 577.1 641.1" width="577.1" height="641.1" y="802" xmlns="http://www.w3.org/2000/svg"><style>.bst0{fill:#58c7d8}.bst1{clip-path:url(#bSVGID_2_)}.bst2{fill:#17a1c8}.bst3{fill:#ed218e}.bst4{fill:#d6137a}.bst5{clip-path:url(#bSVGID_4_)}.bst6{fill:#29306f}</style><path class="bst0" d="M431.1 363.3c0 19.8-14 44.1-31.2 54l-153.2 88.4c-17.1 9.9-45.2 9.9-62.4 0L31.2 417.3C14 407.4 0 383.1 0 363.3V186.4c0-19.8 14-44.1 31.2-54L184.4 44c17.1-9.9 45.2-9.9 62.4 0L400 132.4c17.1 9.9 31.2 34.2 31.2 54v176.9z" id="bHEX"/><path id="bTAIL" class="bst0" d="M248.4 45L162 0l-.6 59z"/><defs><path id="bSVGID_1_" d="M0 150.4l1.8 1 159.6 89.5.6 251.7L0 399.3"/></defs><clipPath id="bSVGID_2_"><use xlink:href="#bSVGID_1_" overflow="visible"/></clipPath><g class="bst1"><path class="bst2" d="M431.1 363.3c0 19.8-14 44.1-31.2 54l-153.2 88.4c-17.1 9.9-45.2 9.9-62.4 0L31.2 417.3C14 407.4 0 383.1 0 363.3V186.4c0-19.8 14-44.1 31.2-54L184.4 44c17.1-9.9 45.2-9.9 62.4 0L400 132.4c17.1 9.9 31.2 34.2 31.2 54v176.9z"/></g><path class="bst3" d="M575.1 269.4c0-19.8-14-44.1-31.2-54L390.7 127c-17.1-9.9-45.2-9.9-62.4 0l-153.2 88.4c-17.1 9.9-31.2 34.2-31.2 54v176.9c0 19.8 14 44.1 31.2 54l153.2 88.4c17.1 9.9 45.2 9.9 62.4 0l153.2-88.4c17.1-9.9 31.2-34.2 31.2-54V269.4z" id="bMAG_HEX"/><path id="bTAIL_1_" class="bst4" d="M393.4 586.8l-86.4 45-.6-59z"/><g id="bDEPTH_1_"><defs><path id="bSVGID_3_" d="M161.4 513.1l145 126L566 508l9.1-35.1-326.7-183.2z"/></defs><clipPath id="bSVGID_4_"><use xlink:href="#bSVGID_3_" overflow="visible"/></clipPath><g class="bst5"><path class="bst4" d="M575.1 269.4c0-19.8-14-44.1-31.2-54L390.7 127c-17.1-9.9-45.2-9.9-62.4 0l-153.2 88.4c-17.1 9.9-31.2 34.2-31.2 54v176.9c0 19.8 14 44.1 31.2 54l153.2 88.4c17.1 9.9 45.2 9.9 62.4 0l153.2-88.4c17.1-9.9 31.2-34.2 31.2-54V269.4z"/></g></g><g id="bCONVERGE"><path class="bst6" d="M175.2 214.4c-17.1 9.9-31.2 34.2-31.2 54v177.7c0 19.8 14 44.1 31.2 54l10.4 6c17.1 9.9 45.2 9.9 62.4 0l152.9-88.3c17.1-9.9 31.2-34.2 31.2-54V186.1c0-19.8-14-44.1-31.2-54l-10.4-6c-17.1-9.9-45.2-9.9-62.4 0l-152.9 88.3z"/></g></svg><svg id="clear-view-escapes" data-name="Layer 1" width="144.4" height="61.53" viewBox="-1 -1 144.4 61.53" x="577.1" y="802" xmlns="http://www.w3.org/2000/svg"><defs><style>.ccls-1{fill:#fff}</style></defs><title>clear-view-escapes</title><path class="ccls-1" d="M19.5 27.52v4.75H5.93v5.51h12.45v4.39H5.93v6.3h13.85v4.75H.28v-25.7H19.5zM27.36 48.59a3 3 0 0 0 .88 1 3.78 3.78 0 0 0 1.24.56 5.84 5.84 0 0 0 1.46.18 5.46 5.46 0 0 0 1.13-.13 3.86 3.86 0 0 0 1.08-.4 2.47 2.47 0 0 0 .85-.75 1.89 1.89 0 0 0 .32-1.13 1.91 1.91 0 0 0-1.53-1.73 30.59 30.59 0 0 0-4.3-1.19q-1.12-.25-2.18-.59a7.38 7.38 0 0 1-1.89-.9 4.35 4.35 0 0 1-1.33-1.4 4 4 0 0 1-.5-2.07 5.6 5.6 0 0 1 .7-3 5.16 5.16 0 0 1 1.85-1.82 8.13 8.13 0 0 1 2.59-.94 15.92 15.92 0 0 1 3-.27 14.79 14.79 0 0 1 2.93.29 7.77 7.77 0 0 1 2.54 1 5.83 5.83 0 0 1 1.8 1.88 6.11 6.11 0 0 1 .89 2.82H34a2.24 2.24 0 0 0-1.12-2 5.1 5.1 0 0 0-2.37-.52 8.77 8.77 0 0 0-.94.05 3.15 3.15 0 0 0-.92.23 1.91 1.91 0 0 0-.7.52 1.38 1.38 0 0 0-.29.92 1.4 1.4 0 0 0 .5 1.12 3.88 3.88 0 0 0 1.31.7 16.38 16.38 0 0 0 1.85.49l2.18.49a21.57 21.57 0 0 1 2.18.61 7.2 7.2 0 0 1 1.89 1 4.63 4.63 0 0 1 1.33 1.48 4.34 4.34 0 0 1 .5 2.18 5.65 5.65 0 0 1-2.66 5.07A7.9 7.9 0 0 1 34 53.37a15.9 15.9 0 0 1-3.11.31 15.36 15.36 0 0 1-3.17-.32A8.35 8.35 0 0 1 25 52.27a6.17 6.17 0 0 1-2-2 6.25 6.25 0 0 1-.85-3.11H27a2.8 2.8 0 0 0 .36 1.43zM51.27 38a3.59 3.59 0 0 0-2.05.56A4.45 4.45 0 0 0 47.87 40a6.23 6.23 0 0 0-.74 1.94 10.54 10.54 0 0 0-.21 2.06 10.11 10.11 0 0 0 .21 2 6.32 6.32 0 0 0 .7 1.89 4 4 0 0 0 1.31 1.39 3.61 3.61 0 0 0 2 .54 3.75 3.75 0 0 0 2.83-1 4.86 4.86 0 0 0 1.24-2.75h4.93a8.43 8.43 0 0 1-2.88 5.65 9.29 9.29 0 0 1-6.08 1.94 10.16 10.16 0 0 1-3.83-.7 8.49 8.49 0 0 1-3-2 8.92 8.92 0 0 1-1.91-3 10.42 10.42 0 0 1-.68-3.83 12.4 12.4 0 0 1 .63-4 9 9 0 0 1 1.9-3.13 8.49 8.49 0 0 1 3-2.1 10.15 10.15 0 0 1 4-.76 11.63 11.63 0 0 1 3.19.43 8.49 8.49 0 0 1 2.73 1.31 6.79 6.79 0 0 1 2.83 5.31h-5A3.43 3.43 0 0 0 51.27 38zM62.82 40.33a5.93 5.93 0 0 1 .9-3 6.13 6.13 0 0 1 2-1.91 8.83 8.83 0 0 1 2.75-1 15.71 15.71 0 0 1 3.08-.31 20.85 20.85 0 0 1 2.84.2 8.72 8.72 0 0 1 2.63.77A5.18 5.18 0 0 1 79 36.67a4.47 4.47 0 0 1 .76 2.72v9.68a19.49 19.49 0 0 0 .14 2.41 4.34 4.34 0 0 0 .5 1.73h-5.19a6.77 6.77 0 0 1-.21-.88 7.44 7.44 0 0 1-.13-.92A6.64 6.64 0 0 1 72 53.17a11.55 11.55 0 0 1-3.38.5 9.1 9.1 0 0 1-2.48-.32 5.68 5.68 0 0 1-2-1 4.69 4.69 0 0 1-1.35-1.73 5.84 5.84 0 0 1-.49-2.48 5.42 5.42 0 0 1 .56-2.61 4.66 4.66 0 0 1 1.44-1.64 6.44 6.44 0 0 1 2-.92 21.75 21.75 0 0 1 2.29-.49q1.15-.18 2.27-.29a13.74 13.74 0 0 0 2-.32 3.43 3.43 0 0 0 1.37-.63 1.38 1.38 0 0 0 .4-1.24 2.72 2.72 0 0 0-.27-1.31 2 2 0 0 0-.72-.69 2.86 2.86 0 0 0-1-.36 8.61 8.61 0 0 0-1.28-.09 3.88 3.88 0 0 0-2.37.65 2.89 2.89 0 0 0-1 2.16h-5.17zm11.8 3.78a2.28 2.28 0 0 1-.81.45 8.28 8.28 0 0 1-1 .27c-.41.07-.81.17-1.2.17s-.82.11-1.22.18a9.24 9.24 0 0 0-1.13.29 3.34 3.34 0 0 0-1 .49 2.3 2.3 0 0 0-.67.77 2.49 2.49 0 0 0-.25 1.19 2.4 2.4 0 0 0 .25 1.15 1.93 1.93 0 0 0 .68.74 2.9 2.9 0 0 0 1 .38 6.48 6.48 0 0 0 1.19.11 4.51 4.51 0 0 0 2.34-.5 3.36 3.36 0 0 0 1.22-1.21 3.87 3.87 0 0 0 .49-1.42 10.06 10.06 0 0 0 .12-1.17v-1.89zM88.56 34.6V37h.07A5.62 5.62 0 0 1 91 34.78a7.29 7.29 0 0 1 3.17-.68 8.07 8.07 0 0 1 3.78.83 7.82 7.82 0 0 1 2.63 2.2 9.31 9.31 0 0 1 1.55 3.19 14.19 14.19 0 0 1 .5 3.8 12.82 12.82 0 0 1-.5 3.6 9.18 9.18 0 0 1-1.53 3.06 7.58 7.58 0 0 1-2.6 2.11 7.69 7.69 0 0 1-3.58.79 7.23 7.23 0 0 1-3.18-.7 6 6 0 0 1-2.39-2.07h-.04v8.82H83.7V34.6h4.86zm6.64 14.76A4.09 4.09 0 0 0 96.56 48a5.43 5.43 0 0 0 .74-1.89 11.19 11.19 0 0 0 .22-2.2 10.32 10.32 0 0 0-.23-2.2 5.86 5.86 0 0 0-.77-1.92 4.33 4.33 0 0 0-1.39-1.37 3.87 3.87 0 0 0-2.08-.42 3.94 3.94 0 0 0-2.11.52 4.22 4.22 0 0 0-1.37 1.35 5.6 5.6 0 0 0-.74 1.91 11.3 11.3 0 0 0-.2 2.22 10.31 10.31 0 0 0 .23 2.2 5.69 5.69 0 0 0 .76 1.8 4.36 4.36 0 0 0 5.58 1.36zM111.15 48.75a5.24 5.24 0 0 0 6 .34 3.21 3.21 0 0 0 1.37-1.64H123a8.54 8.54 0 0 1-3.31 4.79 9.75 9.75 0 0 1-5.4 1.44 10.6 10.6 0 0 1-4-.7 8.22 8.22 0 0 1-3-2 9 9 0 0 1-1.89-3.09 11.34 11.34 0 0 1-.67-4 10.84 10.84 0 0 1 .68-3.89 9 9 0 0 1 4.95-5.18 9.63 9.63 0 0 1 3.87-.76 8.84 8.84 0 0 1 4.14.92 8.26 8.26 0 0 1 2.9 2.46A10.14 10.14 0 0 1 123 41a13.14 13.14 0 0 1 .36 4.14H109.9a5.16 5.16 0 0 0 1.25 3.61zm5.78-9.75a3.59 3.59 0 0 0-2.79-1 4.45 4.45 0 0 0-2 .41 3.89 3.89 0 0 0-1.3 1 3.77 3.77 0 0 0-.68 1.3 5.83 5.83 0 0 0-.23 1.22h8.31a5.91 5.91 0 0 0-1.31-2.93zM130.64 48.59a3 3 0 0 0 .88 1 3.78 3.78 0 0 0 1.24.56 5.83 5.83 0 0 0 1.46.18 5.46 5.46 0 0 0 1.13-.13 3.86 3.86 0 0 0 1.08-.4 2.47 2.47 0 0 0 .81-.72 1.89 1.89 0 0 0 .32-1.13 1.91 1.91 0 0 0-1.56-1.76 30.55 30.55 0 0 0-4.22-1.19q-1.11-.25-2.18-.59a7.39 7.39 0 0 1-1.89-.9 4.36 4.36 0 0 1-1.33-1.4 4 4 0 0 1-.5-2.07 5.6 5.6 0 0 1 .7-3 5.18 5.18 0 0 1 1.85-1.82 8.13 8.13 0 0 1 2.59-.94 15.91 15.91 0 0 1 3-.27 14.79 14.79 0 0 1 2.93.29 7.77 7.77 0 0 1 2.54 1 5.84 5.84 0 0 1 1.85 1.82 6.11 6.11 0 0 1 .88 2.86h-4.86a2.24 2.24 0 0 0-1.12-2 5.1 5.1 0 0 0-2.37-.52 8.77 8.77 0 0 0-.94.05 3.15 3.15 0 0 0-.92.23 1.9 1.9 0 0 0-.7.52 1.38 1.38 0 0 0-.29.92 1.4 1.4 0 0 0 .5 1.12 3.87 3.87 0 0 0 1.31.7 16.33 16.33 0 0 0 1.85.49l2.1.51a21.57 21.57 0 0 1 2.18.61 7.18 7.18 0 0 1 1.89 1 4.63 4.63 0 0 1 1.33 1.48 4.33 4.33 0 0 1 .5 2.18 5.65 5.65 0 0 1-2.68 5.04 7.89 7.89 0 0 1-2.72 1.06 15.9 15.9 0 0 1-3.11.31 15.35 15.35 0 0 1-3.17-.32 8.35 8.35 0 0 1-2.75-1.08 6.18 6.18 0 0 1-2-2 6.25 6.25 0 0 1-.85-3.11h4.86a2.8 2.8 0 0 0 .38 1.42zM23.64 6.29a6.36 6.36 0 0 0-.55-1.43 4 4 0 0 0-.9-1.12A4 4 0 0 0 20.9 3a5.11 5.11 0 0 0-1.71-.26 5 5 0 0 0-2.46.58A4.84 4.84 0 0 0 15 4.85a6.93 6.93 0 0 0-1 2.19 10.16 10.16 0 0 0 0 5 6.92 6.92 0 0 0 1 2.19 4.83 4.83 0 0 0 1.69 1.54 5 5 0 0 0 2.46.57A4.44 4.44 0 0 0 21 16a4.12 4.12 0 0 0 1.38-1 4.71 4.71 0 0 0 .9-1.49 7.13 7.13 0 0 0 .43-1.83h3.05a8.48 8.48 0 0 1-.69 2.93 7.17 7.17 0 0 1-1.59 2.29 7 7 0 0 1-2.35 1.49 8.14 8.14 0 0 1-3 .53 8.43 8.43 0 0 1-3.59-.74 7.88 7.88 0 0 1-2.69-2 9 9 0 0 1-1.69-3 11 11 0 0 1-.59-3.63 11 11 0 0 1 .59-3.6 9 9 0 0 1 1.69-3 8 8 0 0 1 2.69-2 8.29 8.29 0 0 1 3.65-.76A9.46 9.46 0 0 1 22 .6a7.31 7.31 0 0 1 2.34 1.2A6.23 6.23 0 0 1 26 3.72a6.66 6.66 0 0 1 .78 2.58h-3.14zM29.31.62h2.85v17.85h-2.85V.62zM37.49 12.74a5 5 0 0 0 .21 1.45 3.57 3.57 0 0 0 .64 1.23 3.06 3.06 0 0 0 1.08.84 3.54 3.54 0 0 0 1.55.31A3.42 3.42 0 0 0 43 16a3.17 3.17 0 0 0 1.14-1.61h2.7a5.36 5.36 0 0 1-2.1 3.26 5.71 5.71 0 0 1-1.74.85 7 7 0 0 1-2 .29 6.85 6.85 0 0 1-2.7-.5 5.58 5.58 0 0 1-2-1.4 5.93 5.93 0 0 1-1.3-2.12 8.74 8.74 0 0 1-.36-2.77 7.79 7.79 0 0 1 .44-2.61 6.68 6.68 0 0 1 1.25-2.18 5.86 5.86 0 0 1 4.56-2 5.8 5.8 0 0 1 2.74.64 6 6 0 0 1 2 1.69 6.84 6.84 0 0 1 1.17 2.39 7.42 7.42 0 0 1 .2 2.81h-9.5zm6.65-1.88a4.61 4.61 0 0 0-.29-1.3 3.47 3.47 0 0 0-.65-1.09 3.23 3.23 0 0 0-1-.75 3 3 0 0 0-1.31-.29 3.42 3.42 0 0 0-1.36.26 3.11 3.11 0 0 0-1.05.73 3.59 3.59 0 0 0-.7 1.09 3.78 3.78 0 0 0-.29 1.35h6.65zM60 15.59a1.51 1.51 0 0 0 .14.75.58.58 0 0 0 .54.23H61a1.85 1.85 0 0 0 .4 0v2l-.4.04-.49.11-.5.08h-.43a2.75 2.75 0 0 1-1.45-.35 1.74 1.74 0 0 1-.75-1.23 5 5 0 0 1-2.09 1.2 8.22 8.22 0 0 1-2.39.38 5.86 5.86 0 0 1-1.68-.24 4.38 4.38 0 0 1-1.41-.7 3.35 3.35 0 0 1-1-1.18 3.62 3.62 0 0 1-.35-1.68 3.84 3.84 0 0 1 .44-2 3.24 3.24 0 0 1 1.15-1.18 5.21 5.21 0 0 1 1.6-.61q.89-.19 1.79-.29a14.67 14.67 0 0 1 1.48-.21 6.86 6.86 0 0 0 1.24-.21 1.9 1.9 0 0 0 .84-.37 1.27 1.27 0 0 0 .31-.94 1.46 1.46 0 0 0-.26-.9 1.77 1.77 0 0 0-.65-.54 2.82 2.82 0 0 0-.86-.25 6.94 6.94 0 0 0-.9-.06 3.58 3.58 0 0 0-2 .5 2 2 0 0 0-.87 1.55h-2.83a4.29 4.29 0 0 1 .6-2.08 4.14 4.14 0 0 1 1.34-1.33 5.48 5.48 0 0 1 1.84-.7 10.94 10.94 0 0 1 2.1-.2 8.85 8.85 0 0 1 1.88.2 5.34 5.34 0 0 1 1.65.62 3.61 3.61 0 0 1 1.19 1.16A3.19 3.19 0 0 1 60 8.94v6.65zM57.14 12a3.45 3.45 0 0 1-1.6.51q-1 .09-1.9.26a6.12 6.12 0 0 0-.87.21 2.63 2.63 0 0 0-.75.38 1.65 1.65 0 0 0-.51.63 2.14 2.14 0 0 0-.19.94 1.19 1.19 0 0 0 .27.8 2 2 0 0 0 .66.51 3.08 3.08 0 0 0 .85.26 5.3 5.3 0 0 0 .84.07 4.6 4.6 0 0 0 1-.12A3.4 3.4 0 0 0 56 16a2.73 2.73 0 0 0 .81-.76 1.93 1.93 0 0 0 .33-1.14V12zM63.06 5.54h2.68V8h.05a2.88 2.88 0 0 1 .49-1 4.73 4.73 0 0 1 .88-.91 4.4 4.4 0 0 1 1.14-.66 3.41 3.41 0 0 1 1.28-.25 6.21 6.21 0 0 1 .69 0h.39V8L70 7.93a5.06 5.06 0 0 0-.61 0 3.28 3.28 0 0 0-1.36.29 3.13 3.13 0 0 0-1.09.78 4.16 4.16 0 0 0-.75 1.39 6 6 0 0 0-.27 1.9v6.15h-2.86V5.54zM77.19.62h3.25l4.48 14.13H85L89.54.62h3.17l-6.1 17.85h-3.47zM94.42.62h2.85v2.7h-2.85V.62zm0 4.93h2.85v12.92h-2.85V5.54zM102.59 12.74a5 5 0 0 0 .21 1.45 3.57 3.57 0 0 0 .64 1.23 3.06 3.06 0 0 0 1.08.84 3.54 3.54 0 0 0 1.55.31 3.42 3.42 0 0 0 2-.54 3.18 3.18 0 0 0 1.14-1.61h2.7a5.36 5.36 0 0 1-2.1 3.26 5.71 5.71 0 0 1-1.74.85 7 7 0 0 1-2 .29 6.85 6.85 0 0 1-2.7-.5 5.58 5.58 0 0 1-2-1.4 5.93 5.93 0 0 1-1.22-2.15 8.73 8.73 0 0 1-.41-2.77 7.77 7.77 0 0 1 .44-2.61 6.69 6.69 0 0 1 1.25-2.18 5.86 5.86 0 0 1 4.56-2 5.79 5.79 0 0 1 2.74.64 6 6 0 0 1 2 1.69 6.85 6.85 0 0 1 1.16 2.41 7.42 7.42 0 0 1 .19 2.81h-9.5zm6.65-1.88a4.6 4.6 0 0 0-.29-1.3 3.48 3.48 0 0 0-.65-1.09 3.22 3.22 0 0 0-1-.75 3 3 0 0 0-1.3-.28 3.43 3.43 0 0 0-1.36.26 3.12 3.12 0 0 0-1 .73 3.6 3.6 0 0 0-.7 1.09 3.8 3.8 0 0 0-.29 1.35h6.65zM113.1 5.54h3l2.53 9.65 2.42-9.65H124l2.33 9.65L129 5.54h2.9l-4 12.93h-2.93l-2.4-9.6-2.37 9.6h-3z" transform="translate(-.28 -.19)"/></svg><svg id="comment" data-name="Layer 1" width="66" height="66" viewBox="-1 -1 66 66" x="577.1" y="863.53" xmlns="http://www.w3.org/2000/svg"><defs><style>.dcls-1{fill:#2f5572}</style></defs><title>comment</title><path class="dcls-1" d="M.72.08A.67.67 0 0 0 0 .8v46.48a.72.72 0 0 0 .72.72H48l16 16V.72a.67.67 0 0 0-.72-.72H.8z"/></svg><svg id="facebook" data-name="Layer 1" width="23.23" height="44.01" viewBox="-1 -1 23.23 44.01" x="885.29" y="802" xmlns="http://www.w3.org/2000/svg"><defs><style>.ecls-1{fill:#fff}</style></defs><title>facebook</title><path class="ecls-1" d="M21.23.31V7H17.4a3.55 3.55 0 0 0-2.85.91 4.26 4.26 0 0 0-.74 2.72v4.77H21l-1 7.47h-6.19V42H6.27V22.85H0v-7.47h6.27V9.85q0-4.69 2.55-7.28A9 9 0 0 1 15.63 0a39.57 39.57 0 0 1 5.6.31z"/></svg><svg id="fire" data-name="Layer 1" width="58" height="66" viewBox="-1 -1 58 66" x="643.1" y="863.53" xmlns="http://www.w3.org/2000/svg"><defs><style>.fcls-1{fill:#d4953d}</style></defs><title>Untitled-2</title><path class="fcls-1" d="M16 0C24 16 0 24 0 40s16 24 16 24C8.16 48.16 32 40 32 24S16 0 16 0zm24 24c8 16-16 24-16 40h24c3.2 0 8-4 8-16 0-16-16-24-16-24z"/></svg><svg id="globe" data-name="Layer 1" width="66" height="66" viewBox="-1 -1 66 66" x="701.1" y="863.53" xmlns="http://www.w3.org/2000/svg"><defs><style>.gcls-1{fill:#d4953f}</style></defs><title>globe</title><path class="gcls-1" d="M32 0a32 32 0 1 0 32 32A32 32 0 0 0 32 0zm0 8a23.75 23.75 0 0 1 7.52 1.52c-1.68 1.6-3.6 3-3.28 4.48s5.52 1 5.52 4c0 2.16-3.36 2.8-1 5.28 2.8 2.8-5.12 7.84-5.28 11.52-.24 6.64 6.72 7.76 12.24 7.76 3.36 0 4.24 1.6 4 3.52a24.07 24.07 0 0 1-19.76 10 22.94 22.94 0 0 1-8.48-1.76c1.76-3.52-2.24-10.48-6-12.72-1.84-1.84-5.76-1.12-8-2a23.49 23.49 0 0 1-1.52-6.72 1.42 1.42 0 0 1 1.28-.72c1.52 0 3.6 3 4.72 2.72 1.4-.32-5.96-10.48-2.52-12.48 1.6-1 4.8 3.12 3.76-1.28-1-4.08 2.88-2.24 5.28-3.28 2.08-.88 3.6-3.28 1-4.72a8.55 8.55 0 0 1-1.76-1.52A23.75 23.75 0 0 1 32 8.08V8zm18.48 8.72A26.46 26.46 0 0 1 54 22.48v.24a11.78 11.78 0 0 1-1.76 1.76C50 26.72 49.68 22.8 48.72 22c-1-1-4.8.16-5.28-1-.56-1.48 4-3.4 7.04-4.28z"/></svg><svg id="instagram" data-name="Layer 1" width="44.01" height="44.01" viewBox="-1 -1 44.01 44.01" x="841.28" y="802" xmlns="http://www.w3.org/2000/svg"><defs><style>.hcls-1{fill:#fff}</style></defs><title>instagram</title><path class="hcls-1" d="M37.25 35.49V17.77h-3.69a11.77 11.77 0 0 1 .57 3.58 12.12 12.12 0 0 1-1.75 6.36 12.76 12.76 0 0 1-4.76 4.59 13.13 13.13 0 0 1-6.56 1.7 12.78 12.78 0 0 1-9.19-3.71 12 12 0 0 1-3.83-9 11.77 11.77 0 0 1 .49-3.56H4.68v17.76a1.63 1.63 0 0 0 1.6 1.67h29.3a1.63 1.63 0 0 0 1.17-.47 1.59 1.59 0 0 0 .5-1.2zm-7.77-14.57A7.75 7.75 0 0 0 27 15.14a8.28 8.28 0 0 0-6-2.4 8.25 8.25 0 0 0-5.91 2.39 7.75 7.75 0 0 0-2.47 5.78 7.75 7.75 0 0 0 2.47 5.79A8.25 8.25 0 0 0 21 29.1a8.28 8.28 0 0 0 6-2.4 7.75 7.75 0 0 0 2.48-5.78zm7.76-9.84V6.56a1.84 1.84 0 0 0-.54-1.31 1.8 1.8 0 0 0-1.31-.56h-4.78a1.8 1.8 0 0 0-1.31.56 1.84 1.84 0 0 0-.54 1.31v4.52A1.87 1.87 0 0 0 30.6 13h4.8a1.87 1.87 0 0 0 1.85-1.89zM42 5.39v31.23A5.41 5.41 0 0 1 36.62 42H5.39a5.19 5.19 0 0 1-3.8-1.59A5.19 5.19 0 0 1 0 36.62V5.39a5.19 5.19 0 0 1 1.59-3.8A5.19 5.19 0 0 1 5.39 0h31.23a5.19 5.19 0 0 1 3.8 1.59A5.19 5.19 0 0 1 42 5.39z"/></svg><svg id="mail" data-name="Layer 1" width="66" height="50" viewBox="-1 -1 66 50" x="721.5" y="802" xmlns="http://www.w3.org/2000/svg"><defs><style>.icls-1{fill:#2f5572}</style></defs><title>mail</title><path class="icls-1" d="M0 0v8l32 16L64 8V0H0zm0 16v32h64V16L32 32z"/></svg><svg id="rain" data-name="Layer 1" width="66" height="66" viewBox="-1 -1 66 66" x="767.1" y="863.53" xmlns="http://www.w3.org/2000/svg"><defs><style>.jcls-1{fill:#d4953f}</style></defs><title>rain</title><path class="jcls-1" d="M36 0a20.42 20.42 0 0 0-20 16A16 16 0 0 0 0 32a15.4 15.4 0 0 0 4.27 10.72A11.88 11.88 0 0 1 12 40a10.51 10.51 0 0 1 4.47 1A12 12 0 0 1 28 32a12.06 12.06 0 0 1 11.51 9A11.84 11.84 0 0 1 44 40a11.94 11.94 0 0 1 11 7.52A12.07 12.07 0 0 0 64 36c0-5.2-3.36-10.32-8-12v-4A20 20 0 0 0 36 0zm-9.27 40A4 4 0 0 0 24 44v16a4 4 0 1 0 8 0V44a4 4 0 0 0-4.71-4h-.56zm-16 8A4 4 0 0 0 8 52v8a4 4 0 1 0 8 0v-8a4 4 0 0 0-4.71-4h-.54zm32 0A4 4 0 0 0 40 52v8a4 4 0 1 0 8 0v-8a4 4 0 0 0-4.71-4h-.58z" transform="translate(-.04)"/></svg><svg id="star" data-name="Layer 1" width="66" height="66" viewBox="-1 -1 66 66" x="833.1" y="863.53" xmlns="http://www.w3.org/2000/svg"><defs><style>.kcls-1{fill:#d4953f}</style></defs><title>star</title><path class="kcls-1" d="M32 0l-8 24H0l20 16-8 24 20-16 20 16-8-24 20-16H40z"/></svg><svg id="twitter" data-name="Layer 1" width="53.78" height="44.06" viewBox="-1 -1 53.78 44.06" x="787.5" y="802" xmlns="http://www.w3.org/2000/svg"><defs><style>.lcls-1{fill:#fff}</style></defs><title>twitter</title><path class="lcls-1" d="M51.78 5a22.23 22.23 0 0 1-5.32 5.52v1.38a30.15 30.15 0 0 1-1.25 8.53 30.81 30.81 0 0 1-3.76 8.13 32.1 32.1 0 0 1-6.06 6.92 27 27 0 0 1-8.48 4.8 31 31 0 0 1-10.62 1.8A29.47 29.47 0 0 1 0 37.29a22.71 22.71 0 0 0 2.56.13 20.78 20.78 0 0 0 13.17-4.53 10.63 10.63 0 0 1-9.92-7.36 13.45 13.45 0 0 0 2 .16 11 11 0 0 0 2.79-.36 10.44 10.44 0 0 1-6.09-3.67 10.25 10.25 0 0 1-2.41-6.75v-.13a10.52 10.52 0 0 0 4.8 1.34 10.6 10.6 0 0 1-3.45-3.78 10.34 10.34 0 0 1-1.28-5.07 10.4 10.4 0 0 1 1.45-5.33 30.08 30.08 0 0 0 9.71 7.83A29.57 29.57 0 0 0 25.53 13a11.79 11.79 0 0 1-.26-2.43 10.23 10.23 0 0 1 3-7.48 10.64 10.64 0 0 1 15 0l.21.22A20.81 20.81 0 0 0 50.33.8a10.3 10.3 0 0 1-4.67 5.85A21.14 21.14 0 0 0 51.78 5z"/></svg><svg id="wifi" data-name="Layer 1" width="62" height="66" viewBox="-1 -1 62 66" x="899.1" y="863.53" xmlns="http://www.w3.org/2000/svg"><defs><style>.mcls-1{fill:#d4953e}</style></defs><title>wifi</title><path class="mcls-1" d="M29.88 0A55.39 55.39 0 0 0 0 8.72l4.22 6.48a47.32 47.32 0 0 1 25.66-7.28 47.31 47.31 0 0 1 25.9 7.28L60 8.72A55.53 55.53 0 0 0 29.88 0zm0 24a31.08 31.08 0 0 0-17 5l4.22 6.72A23.09 23.09 0 0 1 29.8 32a24.17 24.17 0 0 1 13 3.76L47 29a32.37 32.37 0 0 0-17.2-5h.07zm0 24a8 8 0 1 0 8 8 8 8 0 0 0-8-8z"/></svg><svg id="youtube" data-name="Layer 1" width="36.75" height="44" viewBox="-1 -1 36.75 44" x="908.52" y="802" xmlns="http://www.w3.org/2000/svg"><defs><style>.ncls-1{fill:#fff}</style></defs><title>youtube</title><path class="ncls-1" d="M22.13 29.15v5q0 1.57-.91 1.57a1.5 1.5 0 0 1-1.06-.52v-7.11a1.5 1.5 0 0 1 1.06-.54q.91 0 .91 1.6zm7.92 0v1.08h-2.1v-1.06q0-1.59 1.06-1.59t1 1.59zM7.42 24h2.5v-2.14h-7.3v2.2h2.46V37.4h2.34V24zm6.75 13.4h2.09V25.82h-2.09v8.86a1.86 1.86 0 0 1-1.31 1 .48.48 0 0 1-.49-.47 6.52 6.52 0 0 1 0-.82v-8.57h-2.14V35a5.79 5.79 0 0 0 .19 1.71 1.26 1.26 0 0 0 1.36.87 3.43 3.43 0 0 0 2.39-1.43v1.25zm10.05-3.47v-4.6A8.33 8.33 0 0 0 24 27a1.63 1.63 0 0 0-1.67-1.31A2.82 2.82 0 0 0 20.16 27v-5.1h-2.08v15.5h2.09v-1.13a2.91 2.91 0 0 0 2.18 1.31A1.62 1.62 0 0 0 24 36.27a8.61 8.61 0 0 0 .22-2.35zm7.92-.24v-.3H30a11.6 11.6 0 0 1 0 1.43.9.9 0 0 1-.94.85q-1.08 0-1.08-1.61V32h4.19v-2.41a4.65 4.65 0 0 0-.66-2.72 3.2 3.2 0 0 0-5 0 4.52 4.52 0 0 0-.66 2.72v4.05a4.4 4.4 0 0 0 .66 2.72 3 3 0 0 0 2.49 1.2 2.9 2.9 0 0 0 3-2.51 10.31 10.31 0 0 0 .09-1.36zM17.89 12.3V7.38q0-1.61-1-1.61t-1 1.61v4.92q0 1.64 1 1.64t1-1.64zm16.85 17.6a40.6 40.6 0 0 1-.61 8.2 4.45 4.45 0 0 1-1.36 2.32 4.1 4.1 0 0 1-2.39 1.08 125.31 125.31 0 0 1-13 .49 125.31 125.31 0 0 1-13-.49A4.15 4.15 0 0 1 2 40.42 4.28 4.28 0 0 1 .63 38.1 39.76 39.76 0 0 1 0 29.9a40.6 40.6 0 0 1 .61-8.2A4.45 4.45 0 0 1 2 19.37a4.25 4.25 0 0 1 2.41-1.1q4.29-.47 13-.47t13 .47a4.4 4.4 0 0 1 3.75 3.42 39.76 39.76 0 0 1 .58 8.21zM11.35 0h2.39l-2.83 9.35v6.35H8.57V9.35a39.68 39.68 0 0 0-1.43-5Q6.27 2 5.61 0H8.1l1.67 6.16zM20 7.8v4.1a4.59 4.59 0 0 1-.66 2.76 2.88 2.88 0 0 1-2.49 1.19 2.9 2.9 0 0 1-2.46-1.19 4.68 4.68 0 0 1-.66-2.76V7.8a4.59 4.59 0 0 1 .66-2.74 2.9 2.9 0 0 1 2.46-1.19 2.88 2.88 0 0 1 2.49 1.19A4.59 4.59 0 0 1 20 7.8zM27.87 4v11.7h-2.13v-1.27a3.37 3.37 0 0 1-2.41 1.45A1.31 1.31 0 0 1 22 15a6 6 0 0 1-.19-1.76V4h2.13v8.6a6.14 6.14 0 0 0 0 .82.49.49 0 0 0 .47.52 1.87 1.87 0 0 0 1.31-1V4h2.16z"/></svg></svg>