<?xml version="1.0" encoding="utf-8"?>
<!-- Generator: Adobe Illustrator 19.0.0, SVG Export Plug-In . SVG Version: 6.00 Build 0)  -->
<svg version="1.1" id="DGTIES_LOGO_SINGULAR" xmlns="http://www.w3.org/2000/svg" xmlns:xlink="http://www.w3.org/1999/xlink"
	 x="0px" y="0px" viewBox="0 0 575.1 639.1" style="enable-background:new 0 0 575.1 639.1;" xml:space="preserve">
<style type="text/css">
	.st0{fill:#58C7D8;}
	.st1{clip-path:url(#SVGID_2_);}
	.st2{fill:#17A1C8;}
	.st3{fill:#ED218E;}
	.st4{fill:#D6137A;}
	.st5{clip-path:url(#SVGID_4_);}
	.st6{fill:#29306F;}
</style>
<g id="CYAN">
</g>
<g id="MAGENTA">
</g>
<g>
	<g id="HEX">
		<path class="st0" d="M431.1,363.3c0,19.8-14,44.1-31.2,54l-153.2,88.4c-17.1,9.9-45.2,9.9-62.4,0L31.2,417.3
			C14,407.4,0,383.1,0,363.3V186.4c0-19.8,14-44.1,31.2-54L184.4,44c17.1-9.9,45.2-9.9,62.4,0l153.2,88.4
			c17.1,9.9,31.2,34.2,31.2,54V363.3z"/>
	</g>
	<polygon id="TAIL" class="st0" points="248.4,45 162,0 161.4,59 	"/>
	<g>
		<defs>
			<polyline id="SVGID_1_" points="0,150.4 1.8,151.4 161.4,240.9 162,492.6 0,399.3 			"/>
		</defs>
		<clipPath id="SVGID_2_">
			<use xlink:href="#SVGID_1_"  style="overflow:visible;"/>
		</clipPath>
		<g class="st1">
			<path class="st2" d="M431.1,363.3c0,19.8-14,44.1-31.2,54l-153.2,88.4c-17.1,9.9-45.2,9.9-62.4,0L31.2,417.3
				C14,407.4,0,383.1,0,363.3V186.4c0-19.8,14-44.1,31.2-54L184.4,44c17.1-9.9,45.2-9.9,62.4,0l153.2,88.4
				c17.1,9.9,31.2,34.2,31.2,54V363.3z"/>
		</g>
	</g>
	<g id="MAG_HEX">
		<path class="st3" d="M575.1,269.4c0-19.8-14-44.1-31.2-54L390.7,127c-17.1-9.9-45.2-9.9-62.4,0l-153.2,88.4
			c-17.1,9.9-31.2,34.2-31.2,54v176.9c0,19.8,14,44.1,31.2,54l153.2,88.4c17.1,9.9,45.2,9.9,62.4,0l153.2-88.4
			c17.1-9.9,31.2-34.2,31.2-54V269.4z"/>
	</g>
	<polygon id="TAIL_1_" class="st4" points="393.4,586.8 307,631.8 306.4,572.8 	"/>
	<g id="DEPTH_1_">
		<defs>
			<polygon id="SVGID_3_" points="161.4,513.1 306.4,639.1 566,508 575.1,472.9 248.4,289.7 			"/>
		</defs>
		<clipPath id="SVGID_4_">
			<use xlink:href="#SVGID_3_"  style="overflow:visible;"/>
		</clipPath>
		<g class="st5">
			<path class="st4" d="M575.1,269.4c0-19.8-14-44.1-31.2-54L390.7,127c-17.1-9.9-45.2-9.9-62.4,0l-153.2,88.4
				c-17.1,9.9-31.2,34.2-31.2,54v176.9c0,19.8,14,44.1,31.2,54l153.2,88.4c17.1,9.9,45.2,9.9,62.4,0l153.2-88.4
				c17.1-9.9,31.2-34.2,31.2-54V269.4z"/>
		</g>
	</g>
	<g id="CONVERGE">
		<path class="st6" d="M175.2,214.4c-17.1,9.9-31.2,34.2-31.2,54v177.7c0,19.8,14,44.1,31.2,54l10.4,6c17.1,9.9,45.2,9.9,62.4,0
			l152.9-88.3c17.1-9.9,31.2-34.2,31.2-54V186.1c0-19.8-14-44.1-31.2-54l-10.4-6c-17.1-9.9-45.2-9.9-62.4,0L175.2,214.4z"/>
	</g>
</g>
</svg>
